<?xml version="1.0" standalone="no"?>
<!DOCTYPE svg PUBLIC "-//W3C//DTD SVG 1.1//EN" "http://www.w3.org/Graphics/SVG/1.1/DTD/svg11.dtd" >
<svg xmlns="http://www.w3.org/2000/svg">
    <defs>
        <font id="">
            <font-face font-family=""
                       units-per-em="2048"
                       ascent="1966"
                       descent="-492"
                       bbox="-303 -676 3404 2175"
                    />
            <missing-glyph horiz-adv-x="0" />
            
            <glyph glyph-name="0" unicode="&#x30;" horiz-adv-x="1450" d=" M426,630 Q426,390 488,324 Q550,256 704,256 Q856,256 942,367 Q1028,478 1081,725 Q1114,872 1114,992 Q1114,1251 844,1249 Q684,1249 598,1143 Q512,1037 459,788 M674,-23 Q90,-23 90,508 Q90,647 127,823 Q207,1202 388,1372 Q569,1542 872,1542 Q1450,1542 1450,999 Q1450,858 1413,688 Q1333,313 1152,145 Q971,-23 674,-23"/> 
            <glyph glyph-name="1" unicode="&#x31;" horiz-adv-x="801" d=" M162,0 L422,1229 L164,1229 L227,1518 L801,1518 L477,0"/> 
            <glyph glyph-name="2" unicode="&#x32;" horiz-adv-x="1241" d=" M655,1262 Q578,1262 470,1242 Q362,1222 289,1192 L193,1446 Q422,1542 698,1542 Q1241,1542 1241,1178 Q1241,975 1166,870 Q1134,826 1108,794 Q1038,711 793,537 L424,266 L1061,266 L1006,0 L-92,0 L-39,252 L543,680 Q782,854 846,925 Q910,996 909,1110 Q909,1262 655,1262"/> 
            <glyph glyph-name="3" unicode="&#x33;" horiz-adv-x="1253" d=" M555,-25 Q149,-25 -111,164 L80,397 Q295,243 559,244 Q686,244 757,303 Q828,362 827,506 Q827,596 770,635 Q713,674 571,674 L328,674 L383,944 L682,944 Q805,944 861,984 Q917,1024 918,1141 Q918,1208 864,1238 Q810,1268 674,1268 Q451,1268 297,1192 L176,1436 Q375,1542 733,1542 Q1253,1542 1253,1217 Q1253,1033 1189,939 Q1124,846 999,809 Q1146,743 1147,512 Q1147,-25 555,-25"/> 
            <glyph glyph-name="4" unicode="&#x34;" horiz-adv-x="1298" d=" M-25,311 L27,551 L899,1518 L1257,1518 L397,569 L772,569 L930,1001 L1155,1001 L1063,569 L1298,569 L1243,311 L1008,311 L942,0 L647,0 L713,311"/> 
            <glyph glyph-name="5" unicode="&#x35;" horiz-adv-x="1315" d=" M562,-23 Q385,-22 218,32 Q51,86 -45,164 L147,397 Q348,243 625,244 Q901,244 901,539 Q901,656 830,702 Q758,748 636,750 Q514,750 391,696 L139,776 L338,1518 L1315,1518 L1255,1243 L567,1243 L492,969 Q592,1014 728,1014 Q864,1014 944,996 Q1138,953 1199,801 Q1235,712 1235,558 Q1235,404 1188,282 Q1141,160 1050,95 Q959,30 849,4 Q739,-22 562,-23"/> 
            <glyph glyph-name="6" unicode="&#x36;" horiz-adv-x="1331" d=" M684,240 Q860,240 933,328 Q1006,416 1006,580 Q1006,674 941,724 Q876,774 722,774 Q568,774 480,708 Q393,642 393,467 Q393,240 684,240 M674,-23 Q70,-23 70,492 Q70,596 108,780 Q146,964 220,1116 Q361,1406 684,1482 Q838,1518 1065,1518 L1317,1518 L1257,1243 L1051,1243 Q727,1243 614,1149 Q555,1100 526,1051 Q497,1002 473,924 Q577,1035 858,1034 Q1331,1034 1331,647 Q1331,330 1161,154 Q991,-22 674,-23"/> 
            <glyph glyph-name="7" unicode="&#x37;" horiz-adv-x="1278" d=" M63,0 L858,1243 L127,1243 L184,1518 L1278,1518 L1227,1284 L418,0"/> 
            <glyph glyph-name="8" unicode="&#x38;" horiz-adv-x="1413" d=" M660,930 Q954,930 1021,978 Q1088,1026 1087,1139 Q1087,1210 1026,1248 Q966,1286 816,1286 Q666,1286 601,1238 Q536,1190 537,1079 Q536,1006 660,930 M357,225 Q989,225 989,496 Q988,684 672,684 Q356,684 356,408 M1317,506 Q1317,254 1148,110 Q979,-34 646,-33 Q313,-33 168,78 Q23,189 23,362 Q23,720 367,827 Q228,897 228,1099 Q228,1302 368,1422 Q508,1542 826,1542 Q1144,1542 1278,1448 Q1413,1354 1413,1190 Q1413,868 1157,807 Q1253,764 1285,693 Q1317,622 1317,506"/> 
            <glyph glyph-name="9" unicode="&#x39;" horiz-adv-x="1384" d=" M730,731 Q885,731 973,798 Q1061,865 1061,1038 Q1061,1265 770,1266 Q594,1266 521,1178 Q448,1090 449,926 Q449,832 512,782 Q575,732 730,731 M401,266 Q723,266 841,364 Q901,414 931,464 Q961,514 983,592 Q883,481 596,481 Q123,481 123,872 Q123,1186 293,1364 Q463,1542 780,1542 Q1384,1542 1384,1028 Q1384,911 1346,733 Q1258,326 1042,163 Q924,72 770,36 Q616,0 389,0 L137,0 L195,266"/> 
            <glyph glyph-name="A" unicode="&#x41;" horiz-adv-x="1358" d=" M522,526 L942,526 L852,1100 M-131,0 L778,1528 L1104,1528 L1358,0 L1024,0 L985,250 L367,250 L223,0"/> 
            <glyph glyph-name="B" unicode="&#x42;" horiz-adv-x="1483" d=" M897,911 Q1020,912 1073,962 Q1126,1012 1126,1108 Q1126,1171 1070,1202 Q1014,1233 870,1233 L580,1233 L512,911 M795,279 Q916,279 975,327 Q1034,375 1034,485 Q1034,555 979,588 Q924,621 793,621 L453,621 L379,279 M885,1518 Q1211,1518 1347,1437 Q1483,1356 1483,1198 Q1483,840 1210,778 Q1302,746 1338,678 Q1374,610 1374,500 Q1374,220 1214,110 Q1054,0 723,0 L-10,0 L313,1518"/> 
            <glyph glyph-name="C" unicode="&#x43;" horiz-adv-x="1544" d=" M754,-23 Q389,-23 219,133 Q49,289 49,571 Q49,704 78,836 Q228,1543 911,1542 Q1349,1542 1544,1305 L1272,1083 Q1151,1235 907,1235 Q706,1236 584,1130 Q462,1024 414,795 Q394,705 393,616 Q393,276 784,276 Q991,276 1153,403 L1341,166 Q1228,70 1090,24 Q952,-22 754,-23"/> 
            <glyph glyph-name="D" unicode="&#x44;" horiz-adv-x="1536" d=" M647,293 Q899,293 1004,376 Q1108,459 1163,713 Q1190,842 1190,924 Q1190,1076 1090,1146 Q990,1216 750,1217 L584,1217 L387,293 M700,1518 Q1146,1518 1341,1390 Q1536,1262 1536,973 Q1536,832 1500,665 Q1430,340 1273,179 Q1145,47 890,13 Q787,0 641,0 L-10,0 L313,1518"/> 
            <glyph glyph-name="E" unicode="&#x45;" horiz-adv-x="1430" d=" M-8,0 L315,1518 L1430,1518 L1364,1214 L586,1214 L522,920 L1282,920 L1219,627 L461,627 L389,291 L1176,291 L1114,0"/> 
            <glyph glyph-name="F" unicode="&#x46;" horiz-adv-x="1378" d=" M-8,0 L315,1518 L1378,1518 L1313,1214 L586,1214 L516,889 L1223,889 L1159,590 L453,590 L328,0"/> 
            <glyph glyph-name="G" unicode="&#x47;" horiz-adv-x="1565" d=" M387,614 Q388,260 776,260 Q974,260 1056,327 Q1137,394 1171,573 L1178,604 L774,604 L834,883 L1565,883 L1509,616 Q1432,251 1272,114 Q1112,-23 766,-23 Q49,-23 49,569 Q49,700 78,836 Q219,1543 913,1542 Q1151,1542 1315,1474 Q1479,1406 1556,1305 L1284,1083 Q1157,1235 891,1235 Q498,1235 408,795 Q388,684 387,614"/> 
            <glyph glyph-name="H" unicode="&#x48;" horiz-adv-x="1655" d=" M-8,0 L315,1518 L651,1518 L526,936 L1194,936 L1319,1518 L1655,1518 L1331,0 L995,0 L1128,623 L461,623 L328,0"/> 
            <glyph glyph-name="I" unicode="&#x49;" horiz-adv-x="672" d=" M14,0 L338,1518 L672,1518 L348,0"/> 
            <glyph glyph-name="J" unicode="&#x4A;" horiz-adv-x="911" d=" M98,291 Q219,291 276,335 Q333,379 356,485 L578,1518 L911,1518 L682,438 Q624,163 465,73 Q329,-4 142,-4 Q-45,-4 -115,0 L-53,291"/> 
            <glyph glyph-name="K" unicode="&#x4B;" horiz-adv-x="1552" d=" M950,0 L676,684 L412,430 L322,0 L-8,0 L315,1518 L645,1518 L508,881 L1157,1518 L1552,1518 L938,922 L1303,0"/> 
            <glyph glyph-name="L" unicode="&#x4C;" horiz-adv-x="1094" d=" M-8,0 L315,1518 L651,1518 L389,291 L1094,291 L1032,0"/> 
            <glyph glyph-name="M" unicode="&#x4D;" horiz-adv-x="1972" d=" M-8,0 L315,1518 L754,1518 L922,500 L1522,1518 L1972,1518 L1649,0 L1321,0 L1538,1024 L924,0 L686,0 L508,1022 L293,0"/> 
            <glyph glyph-name="N" unicode="&#x4E;" horiz-adv-x="1655" d=" M-8,0 L315,1518 L676,1518 L1124,539 L1333,1518 L1655,1518 L1331,0 L1022,0 L535,1047 L311,0"/> 
            <glyph glyph-name="O" unicode="&#x4F;" horiz-adv-x="1671" d=" M799,270 Q1012,270 1135,378 Q1258,486 1305,709 Q1325,811 1325,883 Q1325,1235 918,1235 Q705,1234 583,1128 Q461,1022 414,801 Q396,713 395,627 Q396,270 799,270 M795,-25 Q445,-25 248,134 Q51,293 51,596 Q51,713 78,844 Q228,1542 934,1542 Q1282,1542 1477,1385 Q1672,1228 1671,928 Q1671,809 1645,684 Q1493,-25 795,-25"/> 
            <glyph glyph-name="P" unicode="&#x50;" horiz-adv-x="1522" d=" M870,752 Q1020,752 1096,824 Q1172,896 1171,1059 Q1171,1145 1104,1188 Q1036,1231 885,1231 L580,1231 L477,752 M930,1518 Q1522,1518 1522,1120 Q1522,821 1367,642 Q1212,463 881,463 L418,463 L317,0 L-10,0 L313,1518"/> 
            <glyph glyph-name="Q" unicode="&#x51;" horiz-adv-x="1671" d=" M799,270 Q1012,270 1135,378 Q1258,486 1305,709 Q1325,811 1325,883 Q1325,1235 918,1235 Q705,1234 583,1128 Q461,1022 414,801 Q396,713 395,627 Q396,270 799,270 M934,1542 Q1286,1542 1479,1383 Q1672,1224 1671,928 Q1670,810 1640,664 Q1610,518 1543,393 Q1476,268 1396,194 Q1181,-8 795,-8 L791,-8 Q772,-84 802,-109 Q832,-134 940,-133 L1098,-133 L1040,-401 Q999,-405 885,-406 Q602,-406 522,-310 Q442,-214 504,23 Q51,132 51,596 Q49,700 85,874 Q121,1048 209,1191 Q427,1542 934,1542"/> 
            <glyph glyph-name="R" unicode="&#x52;" horiz-adv-x="1513" d=" M874,793 Q1021,793 1093,857 Q1164,922 1163,1061 Q1163,1151 1092,1191 Q1020,1231 870,1231 L580,1231 L487,793 M899,1518 Q1513,1518 1513,1130 Q1513,610 1077,520 L1255,0 L915,0 L741,504 L426,504 L317,0 L-10,0 L313,1518"/> 
            <glyph glyph-name="S" unicode="&#x53;" horiz-adv-x="1452" d=" M680,-23 Q211,-23 -84,203 L131,438 Q362,256 696,256 Q848,256 922,293 Q996,330 996,418 Q996,506 939,539 Q882,572 784,597 Q498,670 403,717 Q307,764 270,805 Q182,903 182,1055 Q182,1542 791,1542 Q1213,1542 1452,1362 L1231,1112 Q1059,1249 778,1249 Q647,1249 586,1212 Q524,1175 524,1093 Q524,1012 591,978 Q658,944 788,912 Q918,880 980,863 Q1042,846 1119,812 Q1342,714 1339,496 Q1339,-23 680,-23"/> 
            <glyph glyph-name="T" unicode="&#x54;" horiz-adv-x="1540" d=" M375,0 L633,1214 L127,1214 L193,1518 L1540,1518 L1475,1214 L969,1214 L711,0"/> 
            <glyph glyph-name="U" unicode="&#x55;" horiz-adv-x="1651" d=" M88,424 Q88,514 113,631 L303,1518 L639,1518 L455,647 Q435,551 434,489 Q434,378 507,324 Q580,270 758,268 Q936,268 1014,343 Q1092,418 1130,600 L1325,1518 L1651,1518 L1440,537 Q1420,439 1393,366 Q1366,293 1314,214 Q1154,-29 721,-29 Q88,-29 88,424"/> 
            <glyph glyph-name="V" unicode="&#x56;" horiz-adv-x="1690" d=" M457,-10 L203,1518 L547,1518 L707,436 L1329,1518 L1690,1518 L780,-10"/> 
            <glyph glyph-name="W" unicode="&#x57;" horiz-adv-x="2292" d=" M326,-10 L211,1518 L557,1518 L612,592 L1092,1518 L1417,1518 L1503,592 L1954,1518 L2292,1518 L1526,-10 L1237,-10 L1143,1012 L614,-10"/> 
            <glyph glyph-name="X" unicode="&#x58;" horiz-adv-x="1618" d=" M983,0 L727,551 L260,0 L-115,0 L602,819 L281,1518 L631,1518 L848,1047 L1243,1518 L1618,1518 L973,778 L1333,0"/> 
            <glyph glyph-name="Y" unicode="&#x59;" horiz-adv-x="1659" d=" M426,0 L543,551 L176,1518 L526,1518 L770,858 L1290,1518 L1659,1518 L877,545 L762,0"/> 
            <glyph glyph-name="Z" unicode="&#x5A;" horiz-adv-x="1446" d=" M-96,0 L-41,250 L940,1214 L199,1214 L262,1518 L1446,1518 L1389,1243 L420,291 L1206,291 L1145,0"/> 
            <glyph glyph-name="a" unicode="&#x61;" horiz-adv-x="1132" d=" M372,240 Q614,240 671,290 Q727,340 758,481 L766,524 L618,524 Q432,524 358,489 Q284,454 285,348 Q284,292 372,240 M823,819 Q823,904 625,903 Q427,902 301,836 L184,1077 Q366,1186 632,1186 Q898,1186 1010,1128 Q1122,1070 1132,960 Q1143,850 1110,686 L1044,373 Q1026,312 1039,288 Q1052,264 1122,266 L1065,4 Q1038,-4 941,-4 Q844,-4 808,18 Q772,40 756,102 Q651,-18 401,-18 Q151,-18 57,66 Q-37,150 -37,295 Q-37,440 12,526 Q100,680 378,726 Q500,745 668,745 L815,745 Q823,778 823,819"/> 
            <glyph glyph-name="b" unicode="&#x62;" horiz-adv-x="1274" d=" M506,254 Q764,254 824,326 Q884,398 920,551 Q938,647 938,698 Q938,893 719,893 Q584,894 515,830 Q446,766 412,602 Q394,522 394,438 Q394,354 506,254 M682,-18 Q352,-18 274,106 L197,-12 L-31,10 L305,1589 L625,1589 L516,1090 Q629,1186 844,1186 Q1274,1186 1274,764 Q1274,653 1246,525 Q1218,397 1176,301 Q1085,89 907,19 Q811,-18 682,-18"/> 
            <glyph glyph-name="c" unicode="&#x63;" horiz-adv-x="1161" d=" M545,-18 Q13,-18 12,426 Q12,530 35,643 Q88,906 240,1046 Q392,1186 682,1186 Q866,1186 977,1134 Q1088,1082 1161,985 L899,778 Q876,811 853,831 Q829,850 777,870 Q725,890 653,891 Q528,891 458,820 Q388,749 356,594 Q342,518 342,459 Q342,252 571,252 Q641,252 695,269 Q749,286 819,342 L989,139 Q799,-18 545,-18"/> 
            <glyph glyph-name="d" unicode="&#x64;" horiz-adv-x="1405" d=" M346,516 Q346,360 395,308 Q444,256 571,256 Q698,256 767,319 Q836,382 870,547 Q919,767 830,847 Q774,897 646,897 Q518,897 457,824 Q396,752 346,516 M438,-18 Q6,-18 6,401 Q6,503 37,641 Q94,906 222,1046 Q350,1186 598,1186 Q889,1186 969,1063 L1083,1589 L1405,1589 L1069,12 L819,-10 L819,88 Q702,-18 438,-18"/> 
            <glyph glyph-name="e" unicode="&#x65;" horiz-adv-x="1145" d=" M756,918 Q526,918 460,860 Q394,802 358,688 L838,688 Q846,737 846,766 Q846,840 756,918 M539,-23 Q11,-23 10,424 Q10,520 35,643 Q88,906 242,1046 Q396,1186 676,1186 Q1045,1186 1123,956 Q1145,894 1145,788 Q1145,682 1096,459 L317,459 L317,455 Q317,238 578,238 Q783,238 911,322 L1036,98 Q852,-23 539,-23"/> 
            <glyph glyph-name="f" unicode="&#x66;" horiz-adv-x="1040" d=" M874,1626 Q970,1626 1040,1622 L985,1360 L881,1360 Q784,1360 744,1327 Q704,1294 690,1221 L676,1159 L942,1159 L885,885 L618,885 L358,-338 L37,-338 L297,885 L78,885 L137,1159 L354,1159 L375,1253 Q420,1456 528,1541 Q637,1626 874,1626"/> 
            <glyph glyph-name="g" unicode="&#x67;" horiz-adv-x="1292" d=" M414,758 Q414,639 618,639 Q731,639 784,682 Q837,725 838,819 Q838,878 791,908 Q744,938 630,938 Q516,938 465,897 Q414,856 414,758 M500,-147 Q643,-148 698,-120 Q753,-92 754,-8 Q754,49 680,73 Q606,96 446,96 Q286,96 238,68 Q189,40 188,-33 Q189,-147 500,-147 M616,426 Q503,426 406,442 Q394,418 394,386 Q394,354 412,340 Q432,326 492,324 Q840,318 967,256 Q1094,194 1094,31 Q1094,-205 942,-286 Q790,-367 454,-367 Q118,-367 -18,-301 Q-154,-235 -156,-91 Q-156,53 -71,128 Q14,203 150,223 Q106,272 106,365 Q106,458 188,537 Q96,617 96,752 Q96,983 230,1084 Q364,1185 653,1186 Q680,1186 754,1182 L1292,1286 L1249,1042 L1067,1042 Q1159,956 1159,817 Q1159,612 1027,519 Q895,426 616,426"/> 
            <glyph glyph-name="h" unicode="&#x68;" horiz-adv-x="1206" d=" M813,1186 Q1052,1186 1145,1086 Q1221,1004 1206,830 Q1200,761 1180,664 L1036,0 L717,0 L850,629 Q862,703 867,759 Q872,815 826,849 Q780,883 666,883 Q552,882 501,824 Q449,766 426,653 L287,0 L-35,0 L303,1589 L623,1589 L518,1092 Q627,1186 813,1186"/> 
            <glyph glyph-name="i" unicode="&#x69;" horiz-adv-x="633" d=" M246,1266 L309,1559 L633,1559 L571,1266 M-23,0 L225,1159 L545,1159 L299,0"/> 
            <glyph glyph-name="j" unicode="&#x6A;" horiz-adv-x="633" d=" M246,1266 L309,1559 L633,1559 L571,1266 M-150,-102 Q-78,-102 -54,-74 Q-30,-46 -10,47 L225,1159 L545,1159 L303,14 Q256,-213 174,-280 Q92,-347 -102,-346 L-227,-346 L-174,-102"/> 
            <glyph glyph-name="k" unicode="&#x6B;" horiz-adv-x="1235" d=" M-33,0 L305,1589 L623,1589 L438,721 L879,1159 L1235,1159 L760,692 L1024,0 L690,0 L514,451 L344,285 L285,0"/> 
            <glyph glyph-name="l" unicode="&#x6C;" horiz-adv-x="637" d=" M301,-4 Q127,-4 72,88 Q17,180 61,389 L315,1589 L637,1589 L383,389 Q367,320 383,294 Q399,268 469,268 L508,268 L453,4 Q399,-4 301,-4"/> 
            <glyph glyph-name="m" unicode="&#x6D;" horiz-adv-x="1914" d=" M803,1186 Q942,1186 1025,1159 Q1108,1132 1149,1059 Q1268,1186 1532,1186 Q1657,1186 1739,1157 Q1821,1128 1860,1086 Q1899,1044 1910,970 Q1921,896 1914,830 Q1907,763 1886,664 L1743,0 L1423,0 L1556,629 Q1568,686 1573,712 Q1587,805 1549,843 Q1511,881 1391,882 Q1272,882 1226,826 Q1180,770 1153,653 L1016,0 L694,0 L827,629 Q837,680 848,731 Q859,782 846,805 Q832,828 812,848 Q778,884 662,883 Q545,882 498,826 Q451,770 426,653 L287,0 L-35,0 L207,1141 L463,1159 L463,1073 Q598,1186 803,1186"/> 
            <glyph glyph-name="n" unicode="&#x6E;" horiz-adv-x="1206" d=" M666,883 Q552,882 501,824 Q449,766 426,653 L287,0 L-35,0 L207,1141 L463,1159 L463,1073 Q598,1186 825,1186 Q1052,1186 1145,1086 Q1221,1004 1206,830 Q1200,761 1180,664 L1036,0 L717,0 L850,629 Q862,703 867,759 Q872,815 826,849 Q780,883 666,883"/> 
            <glyph glyph-name="o" unicode="&#x6F;" horiz-adv-x="1229" d=" M575,252 Q710,252 779,324 Q848,396 881,547 Q897,623 897,682 Q897,893 664,893 Q527,893 458,820 Q389,747 356,594 Q340,518 340,459 Q339,252 575,252 M824,-23 Q276,-23 144,99 Q12,221 12,438 Q12,530 35,643 Q96,928 256,1057 Q416,1186 690,1186 Q964,1186 1097,1065 Q1229,944 1229,729 Q1229,649 1204,522 Q1145,235 985,106"/> 
            <glyph glyph-name="p" unicode="&#x70;" horiz-adv-x="1274" d=" M506,254 Q764,254 824,326 Q884,398 920,551 Q938,647 938,698 Q938,893 719,893 Q584,894 515,830 Q446,766 412,602 Q394,522 394,438 Q394,354 506,254 M844,1186 Q1274,1186 1274,764 Q1274,653 1246,525 Q1189,266 1062,123 Q935,-20 682,-18 Q510,-18 427,12 Q344,42 309,98 L217,-338 L-104,-338 L209,1141 L463,1159 L465,1067 Q588,1186 844,1186"/> 
            <glyph glyph-name="q" unicode="&#x71;" horiz-adv-x="1311" d=" M346,516 Q346,360 395,308 Q444,256 571,256 Q698,256 767,319 Q836,382 870,547 Q919,767 830,847 Q774,897 646,897 Q518,897 457,824 Q396,752 346,516 M6,401 Q6,503 37,641 Q94,906 222,1046 Q350,1186 598,1186 Q772,1186 866,1156 Q960,1126 1008,1059 L1092,1165 L1311,1147 L997,-338 L674,-338 L756,61 Q652,-19 438,-18 Q6,-18 6,401"/> 
            <glyph glyph-name="r" unicode="&#x72;" horiz-adv-x="829" d=" M-33,0 L209,1141 L465,1159 L465,1049 Q555,1170 829,1174 L764,866 Q586,864 516,802 Q446,740 414,592 L289,0"/> 
            <glyph glyph-name="s" unicode="&#x73;" horiz-adv-x="1108" d=" M475,-18 Q303,-18 155,32 Q7,82 -92,166 L102,385 Q182,324 295,283 Q408,242 504,242 Q600,242 638,259 Q676,276 676,341 Q676,406 481,453 Q467,457 393,474 Q319,491 218,547 Q94,617 94,772 Q94,1186 612,1186 Q907,1186 1108,1049 L909,809 Q749,905 582,905 Q496,905 461,887 Q426,870 426,820 Q426,770 472,748 Q518,726 610,702 Q702,680 742,668 Q782,656 838,629 Q1001,551 999,377 Q999,162 864,72 Q729,-18 475,-18"/> 
            <glyph glyph-name="t" unicode="&#x74;" horiz-adv-x="911" d=" M608,268 L723,268 L666,0 Q619,-4 485,-4 Q254,-4 187,92 Q120,188 164,395 L268,885 L78,885 L137,1159 L344,1159 L459,1442 L719,1493 L647,1159 L911,1159 L854,885 L588,885 L487,408 Q472,332 492,300 Q512,268 608,268"/> 
            <glyph glyph-name="u" unicode="&#x75;" horiz-adv-x="1268" d=" M822,-23 Q314,-23 195,46 Q76,115 58,250 Q41,385 82,584 L205,1159 L526,1159 L399,559 Q383,472 378,406 Q373,340 420,300 Q466,260 582,260 Q698,260 741,317 Q784,374 815,518 L952,1159 L1268,1159 L1128,504 Q1062,201 822,-23"/> 
            <glyph glyph-name="v" unicode="&#x76;" horiz-adv-x="1292" d=" M285,-12 L92,1159 L426,1159 L528,393 L952,1159 L1292,1159 L604,-12"/> 
            <glyph glyph-name="w" unicode="&#x77;" horiz-adv-x="1903" d=" M225,-12 L113,1159 L446,1159 L498,496 L848,1159 L1178,1159 L1253,496 L1579,1159 L1903,1159 L1294,-12 L999,-12 L915,733 L520,-12"/> 
            <glyph glyph-name="x" unicode="&#x78;" horiz-adv-x="1229" d=" M666,0 L500,369 L190,0 L-158,0 L387,618 L145,1159 L481,1159 L621,846 L881,1159 L1229,1159 L735,594 L1001,0"/> 
            <glyph glyph-name="y" unicode="&#x79;" horiz-adv-x="1235" d=" M82,-348 Q-4,-348 -74,-344 L-23,-102 L63,-102 Q155,-102 184,-87 Q213,-72 242,-16 L270,39 L92,1159 L430,1159 L520,459 L903,1159 L1235,1159 L520,-74 Q424,-240 341,-294 Q258,-348 82,-348"/> 
            <glyph glyph-name="z" unicode="&#x7A;" horiz-adv-x="1094" d=" M-121,0 L-74,215 L602,885 L102,885 L160,1159 L1094,1159 L1047,940 L367,258 L926,258 L870,0"/> 
            <glyph glyph-name=" " unicode="&#x20;" horiz-adv-x="1450" d=" M426,630 Q426,390 488,324 Q550,256 704,256 Q856,256 942,367 Q1028,478 1081,725 Q1114,872 1114,992 Q1114,1251 844,1249 Q684,1249 598,1143 Q512,1037 459,788 M674,-23 Q90,-23 90,508 Q90,647 127,823 Q207,1202 388,1372 Q569,1542 872,1542 Q1450,1542 1450,999 Q1450,858 1413,688 Q1333,313 1152,145 Q971,-23 674,-23"/> 
            <glyph glyph-name="0" unicode="&#x30;" horiz-adv-x="801" d=" M162,0 L422,1229 L164,1229 L227,1518 L801,1518 L477,0"/> 
            <glyph glyph-name="1" unicode="&#x31;" horiz-adv-x="1241" d=" M655,1262 Q578,1262 470,1242 Q362,1222 289,1192 L193,1446 Q422,1542 698,1542 Q1241,1542 1241,1178 Q1241,975 1166,870 Q1134,826 1108,794 Q1038,711 793,537 L424,266 L1061,266 L1006,0 L-92,0 L-39,252 L543,680 Q782,854 846,925 Q910,996 909,1110 Q909,1262 655,1262"/> 
            <glyph glyph-name="2" unicode="&#x32;" horiz-adv-x="1253" d=" M555,-25 Q149,-25 -111,164 L80,397 Q295,243 559,244 Q686,244 757,303 Q828,362 827,506 Q827,596 770,635 Q713,674 571,674 L328,674 L383,944 L682,944 Q805,944 861,984 Q917,1024 918,1141 Q918,1208 864,1238 Q810,1268 674,1268 Q451,1268 297,1192 L176,1436 Q375,1542 733,1542 Q1253,1542 1253,1217 Q1253,1033 1189,939 Q1124,846 999,809 Q1146,743 1147,512 Q1147,-25 555,-25"/> 
            <glyph glyph-name="3" unicode="&#x33;" horiz-adv-x="1298" d=" M-25,311 L27,551 L899,1518 L1257,1518 L397,569 L772,569 L930,1001 L1155,1001 L1063,569 L1298,569 L1243,311 L1008,311 L942,0 L647,0 L713,311"/> 
            <glyph glyph-name="4" unicode="&#x34;" horiz-adv-x="1315" d=" M562,-23 Q385,-22 218,32 Q51,86 -45,164 L147,397 Q348,243 625,244 Q901,244 901,539 Q901,656 830,702 Q758,748 636,750 Q514,750 391,696 L139,776 L338,1518 L1315,1518 L1255,1243 L567,1243 L492,969 Q592,1014 728,1014 Q864,1014 944,996 Q1138,953 1199,801 Q1235,712 1235,558 Q1235,404 1188,282 Q1141,160 1050,95 Q959,30 849,4 Q739,-22 562,-23"/> 
            <glyph glyph-name="5" unicode="&#x35;" horiz-adv-x="1331" d=" M684,240 Q860,240 933,328 Q1006,416 1006,580 Q1006,674 941,724 Q876,774 722,774 Q568,774 480,708 Q393,642 393,467 Q393,240 684,240 M674,-23 Q70,-23 70,492 Q70,596 108,780 Q146,964 220,1116 Q361,1406 684,1482 Q838,1518 1065,1518 L1317,1518 L1257,1243 L1051,1243 Q727,1243 614,1149 Q555,1100 526,1051 Q497,1002 473,924 Q577,1035 858,1034 Q1331,1034 1331,647 Q1331,330 1161,154 Q991,-22 674,-23"/> 
            <glyph glyph-name="6" unicode="&#x36;" horiz-adv-x="1278" d=" M63,0 L858,1243 L127,1243 L184,1518 L1278,1518 L1227,1284 L418,0"/> 
            <glyph glyph-name="7" unicode="&#x37;" horiz-adv-x="1413" d=" M660,930 Q954,930 1021,978 Q1088,1026 1087,1139 Q1087,1210 1026,1248 Q966,1286 816,1286 Q666,1286 601,1238 Q536,1190 537,1079 Q536,1006 660,930 M357,225 Q989,225 989,496 Q988,684 672,684 Q356,684 356,408 M1317,506 Q1317,254 1148,110 Q979,-34 646,-33 Q313,-33 168,78 Q23,189 23,362 Q23,720 367,827 Q228,897 228,1099 Q228,1302 368,1422 Q508,1542 826,1542 Q1144,1542 1278,1448 Q1413,1354 1413,1190 Q1413,868 1157,807 Q1253,764 1285,693 Q1317,622 1317,506"/> 
            <glyph glyph-name="8" unicode="&#x38;" horiz-adv-x="1384" d=" M730,731 Q885,731 973,798 Q1061,865 1061,1038 Q1061,1265 770,1266 Q594,1266 521,1178 Q448,1090 449,926 Q449,832 512,782 Q575,732 730,731 M401,266 Q723,266 841,364 Q901,414 931,464 Q961,514 983,592 Q883,481 596,481 Q123,481 123,872 Q123,1186 293,1364 Q463,1542 780,1542 Q1384,1542 1384,1028 Q1384,911 1346,733 Q1258,326 1042,163 Q924,72 770,36 Q616,0 389,0 L137,0 L195,266"/> 
            <glyph glyph-name="9" unicode="&#x39;" horiz-adv-x="1358" d=" M522,526 L942,526 L852,1100 M-131,0 L778,1528 L1104,1528 L1358,0 L1024,0 L985,250 L367,250 L223,0"/> 
            <glyph glyph-name="A" unicode="&#x41;" horiz-adv-x="1483" d=" M897,911 Q1020,912 1073,962 Q1126,1012 1126,1108 Q1126,1171 1070,1202 Q1014,1233 870,1233 L580,1233 L512,911 M795,279 Q916,279 975,327 Q1034,375 1034,485 Q1034,555 979,588 Q924,621 793,621 L453,621 L379,279 M885,1518 Q1211,1518 1347,1437 Q1483,1356 1483,1198 Q1483,840 1210,778 Q1302,746 1338,678 Q1374,610 1374,500 Q1374,220 1214,110 Q1054,0 723,0 L-10,0 L313,1518"/> 
            <glyph glyph-name="B" unicode="&#x42;" horiz-adv-x="1544" d=" M754,-23 Q389,-23 219,133 Q49,289 49,571 Q49,704 78,836 Q228,1543 911,1542 Q1349,1542 1544,1305 L1272,1083 Q1151,1235 907,1235 Q706,1236 584,1130 Q462,1024 414,795 Q394,705 393,616 Q393,276 784,276 Q991,276 1153,403 L1341,166 Q1228,70 1090,24 Q952,-22 754,-23"/> 
            <glyph glyph-name="C" unicode="&#x43;" horiz-adv-x="1536" d=" M647,293 Q899,293 1004,376 Q1108,459 1163,713 Q1190,842 1190,924 Q1190,1076 1090,1146 Q990,1216 750,1217 L584,1217 L387,293 M700,1518 Q1146,1518 1341,1390 Q1536,1262 1536,973 Q1536,832 1500,665 Q1430,340 1273,179 Q1145,47 890,13 Q787,0 641,0 L-10,0 L313,1518"/> 
            <glyph glyph-name="D" unicode="&#x44;" horiz-adv-x="1430" d=" M-8,0 L315,1518 L1430,1518 L1364,1214 L586,1214 L522,920 L1282,920 L1219,627 L461,627 L389,291 L1176,291 L1114,0"/> 
            <glyph glyph-name="E" unicode="&#x45;" horiz-adv-x="1378" d=" M-8,0 L315,1518 L1378,1518 L1313,1214 L586,1214 L516,889 L1223,889 L1159,590 L453,590 L328,0"/> 
            <glyph glyph-name="F" unicode="&#x46;" horiz-adv-x="1565" d=" M387,614 Q388,260 776,260 Q974,260 1056,327 Q1137,394 1171,573 L1178,604 L774,604 L834,883 L1565,883 L1509,616 Q1432,251 1272,114 Q1112,-23 766,-23 Q49,-23 49,569 Q49,700 78,836 Q219,1543 913,1542 Q1151,1542 1315,1474 Q1479,1406 1556,1305 L1284,1083 Q1157,1235 891,1235 Q498,1235 408,795 Q388,684 387,614"/> 
            <glyph glyph-name="G" unicode="&#x47;" horiz-adv-x="1655" d=" M-8,0 L315,1518 L651,1518 L526,936 L1194,936 L1319,1518 L1655,1518 L1331,0 L995,0 L1128,623 L461,623 L328,0"/> 
            <glyph glyph-name="H" unicode="&#x48;" horiz-adv-x="672" d=" M14,0 L338,1518 L672,1518 L348,0"/> 
            <glyph glyph-name="I" unicode="&#x49;" horiz-adv-x="911" d=" M98,291 Q219,291 276,335 Q333,379 356,485 L578,1518 L911,1518 L682,438 Q624,163 465,73 Q329,-4 142,-4 Q-45,-4 -115,0 L-53,291"/> 
            <glyph glyph-name="J" unicode="&#x4A;" horiz-adv-x="1552" d=" M950,0 L676,684 L412,430 L322,0 L-8,0 L315,1518 L645,1518 L508,881 L1157,1518 L1552,1518 L938,922 L1303,0"/> 
            <glyph glyph-name="K" unicode="&#x4B;" horiz-adv-x="1094" d=" M-8,0 L315,1518 L651,1518 L389,291 L1094,291 L1032,0"/> 
            <glyph glyph-name="L" unicode="&#x4C;" horiz-adv-x="1972" d=" M-8,0 L315,1518 L754,1518 L922,500 L1522,1518 L1972,1518 L1649,0 L1321,0 L1538,1024 L924,0 L686,0 L508,1022 L293,0"/> 
            <glyph glyph-name="M" unicode="&#x4D;" horiz-adv-x="1655" d=" M-8,0 L315,1518 L676,1518 L1124,539 L1333,1518 L1655,1518 L1331,0 L1022,0 L535,1047 L311,0"/> 
            <glyph glyph-name="N" unicode="&#x4E;" horiz-adv-x="1671" d=" M799,270 Q1012,270 1135,378 Q1258,486 1305,709 Q1325,811 1325,883 Q1325,1235 918,1235 Q705,1234 583,1128 Q461,1022 414,801 Q396,713 395,627 Q396,270 799,270 M795,-25 Q445,-25 248,134 Q51,293 51,596 Q51,713 78,844 Q228,1542 934,1542 Q1282,1542 1477,1385 Q1672,1228 1671,928 Q1671,809 1645,684 Q1493,-25 795,-25"/> 
            <glyph glyph-name="O" unicode="&#x4F;" horiz-adv-x="1522" d=" M870,752 Q1020,752 1096,824 Q1172,896 1171,1059 Q1171,1145 1104,1188 Q1036,1231 885,1231 L580,1231 L477,752 M930,1518 Q1522,1518 1522,1120 Q1522,821 1367,642 Q1212,463 881,463 L418,463 L317,0 L-10,0 L313,1518"/> 
            <glyph glyph-name="P" unicode="&#x50;" horiz-adv-x="1671" d=" M799,270 Q1012,270 1135,378 Q1258,486 1305,709 Q1325,811 1325,883 Q1325,1235 918,1235 Q705,1234 583,1128 Q461,1022 414,801 Q396,713 395,627 Q396,270 799,270 M934,1542 Q1286,1542 1479,1383 Q1672,1224 1671,928 Q1670,810 1640,664 Q1610,518 1543,393 Q1476,268 1396,194 Q1181,-8 795,-8 L791,-8 Q772,-84 802,-109 Q832,-134 940,-133 L1098,-133 L1040,-401 Q999,-405 885,-406 Q602,-406 522,-310 Q442,-214 504,23 Q51,132 51,596 Q49,700 85,874 Q121,1048 209,1191 Q427,1542 934,1542"/> 
            <glyph glyph-name="Q" unicode="&#x51;" horiz-adv-x="1513" d=" M874,793 Q1021,793 1093,857 Q1164,922 1163,1061 Q1163,1151 1092,1191 Q1020,1231 870,1231 L580,1231 L487,793 M899,1518 Q1513,1518 1513,1130 Q1513,610 1077,520 L1255,0 L915,0 L741,504 L426,504 L317,0 L-10,0 L313,1518"/> 
            <glyph glyph-name="R" unicode="&#x52;" horiz-adv-x="1452" d=" M680,-23 Q211,-23 -84,203 L131,438 Q362,256 696,256 Q848,256 922,293 Q996,330 996,418 Q996,506 939,539 Q882,572 784,597 Q498,670 403,717 Q307,764 270,805 Q182,903 182,1055 Q182,1542 791,1542 Q1213,1542 1452,1362 L1231,1112 Q1059,1249 778,1249 Q647,1249 586,1212 Q524,1175 524,1093 Q524,1012 591,978 Q658,944 788,912 Q918,880 980,863 Q1042,846 1119,812 Q1342,714 1339,496 Q1339,-23 680,-23"/> 
            <glyph glyph-name="S" unicode="&#x53;" horiz-adv-x="1540" d=" M375,0 L633,1214 L127,1214 L193,1518 L1540,1518 L1475,1214 L969,1214 L711,0"/> 
            <glyph glyph-name="T" unicode="&#x54;" horiz-adv-x="1651" d=" M88,424 Q88,514 113,631 L303,1518 L639,1518 L455,647 Q435,551 434,489 Q434,378 507,324 Q580,270 758,268 Q936,268 1014,343 Q1092,418 1130,600 L1325,1518 L1651,1518 L1440,537 Q1420,439 1393,366 Q1366,293 1314,214 Q1154,-29 721,-29 Q88,-29 88,424"/> 
            <glyph glyph-name="U" unicode="&#x55;" horiz-adv-x="1690" d=" M457,-10 L203,1518 L547,1518 L707,436 L1329,1518 L1690,1518 L780,-10"/> 
            <glyph glyph-name="V" unicode="&#x56;" horiz-adv-x="2292" d=" M326,-10 L211,1518 L557,1518 L612,592 L1092,1518 L1417,1518 L1503,592 L1954,1518 L2292,1518 L1526,-10 L1237,-10 L1143,1012 L614,-10"/> 
            <glyph glyph-name="W" unicode="&#x57;" horiz-adv-x="1618" d=" M983,0 L727,551 L260,0 L-115,0 L602,819 L281,1518 L631,1518 L848,1047 L1243,1518 L1618,1518 L973,778 L1333,0"/> 
            <glyph glyph-name="X" unicode="&#x58;" horiz-adv-x="1659" d=" M426,0 L543,551 L176,1518 L526,1518 L770,858 L1290,1518 L1659,1518 L877,545 L762,0"/> 
            <glyph glyph-name="Y" unicode="&#x59;" horiz-adv-x="1446" d=" M-96,0 L-41,250 L940,1214 L199,1214 L262,1518 L1446,1518 L1389,1243 L420,291 L1206,291 L1145,0"/> 
            <glyph glyph-name="Z" unicode="&#x5A;" horiz-adv-x="1132" d=" M372,240 Q614,240 671,290 Q727,340 758,481 L766,524 L618,524 Q432,524 358,489 Q284,454 285,348 Q284,292 372,240 M823,819 Q823,904 625,903 Q427,902 301,836 L184,1077 Q366,1186 632,1186 Q898,1186 1010,1128 Q1122,1070 1132,960 Q1143,850 1110,686 L1044,373 Q1026,312 1039,288 Q1052,264 1122,266 L1065,4 Q1038,-4 941,-4 Q844,-4 808,18 Q772,40 756,102 Q651,-18 401,-18 Q151,-18 57,66 Q-37,150 -37,295 Q-37,440 12,526 Q100,680 378,726 Q500,745 668,745 L815,745 Q823,778 823,819"/> 
            <glyph glyph-name="a" unicode="&#x61;" horiz-adv-x="1274" d=" M506,254 Q764,254 824,326 Q884,398 920,551 Q938,647 938,698 Q938,893 719,893 Q584,894 515,830 Q446,766 412,602 Q394,522 394,438 Q394,354 506,254 M682,-18 Q352,-18 274,106 L197,-12 L-31,10 L305,1589 L625,1589 L516,1090 Q629,1186 844,1186 Q1274,1186 1274,764 Q1274,653 1246,525 Q1218,397 1176,301 Q1085,89 907,19 Q811,-18 682,-18"/> 
            <glyph glyph-name="b" unicode="&#x62;" horiz-adv-x="1161" d=" M545,-18 Q13,-18 12,426 Q12,530 35,643 Q88,906 240,1046 Q392,1186 682,1186 Q866,1186 977,1134 Q1088,1082 1161,985 L899,778 Q876,811 853,831 Q829,850 777,870 Q725,890 653,891 Q528,891 458,820 Q388,749 356,594 Q342,518 342,459 Q342,252 571,252 Q641,252 695,269 Q749,286 819,342 L989,139 Q799,-18 545,-18"/> 
            <glyph glyph-name="c" unicode="&#x63;" horiz-adv-x="1405" d=" M346,516 Q346,360 395,308 Q444,256 571,256 Q698,256 767,319 Q836,382 870,547 Q919,767 830,847 Q774,897 646,897 Q518,897 457,824 Q396,752 346,516 M438,-18 Q6,-18 6,401 Q6,503 37,641 Q94,906 222,1046 Q350,1186 598,1186 Q889,1186 969,1063 L1083,1589 L1405,1589 L1069,12 L819,-10 L819,88 Q702,-18 438,-18"/> 
            <glyph glyph-name="d" unicode="&#x64;" horiz-adv-x="1145" d=" M756,918 Q526,918 460,860 Q394,802 358,688 L838,688 Q846,737 846,766 Q846,840 756,918 M539,-23 Q11,-23 10,424 Q10,520 35,643 Q88,906 242,1046 Q396,1186 676,1186 Q1045,1186 1123,956 Q1145,894 1145,788 Q1145,682 1096,459 L317,459 L317,455 Q317,238 578,238 Q783,238 911,322 L1036,98 Q852,-23 539,-23"/> 
            <glyph glyph-name="e" unicode="&#x65;" horiz-adv-x="1040" d=" M874,1626 Q970,1626 1040,1622 L985,1360 L881,1360 Q784,1360 744,1327 Q704,1294 690,1221 L676,1159 L942,1159 L885,885 L618,885 L358,-338 L37,-338 L297,885 L78,885 L137,1159 L354,1159 L375,1253 Q420,1456 528,1541 Q637,1626 874,1626"/> 
            <glyph glyph-name="f" unicode="&#x66;" horiz-adv-x="1292" d=" M414,758 Q414,639 618,639 Q731,639 784,682 Q837,725 838,819 Q838,878 791,908 Q744,938 630,938 Q516,938 465,897 Q414,856 414,758 M500,-147 Q643,-148 698,-120 Q753,-92 754,-8 Q754,49 680,73 Q606,96 446,96 Q286,96 238,68 Q189,40 188,-33 Q189,-147 500,-147 M616,426 Q503,426 406,442 Q394,418 394,386 Q394,354 412,340 Q432,326 492,324 Q840,318 967,256 Q1094,194 1094,31 Q1094,-205 942,-286 Q790,-367 454,-367 Q118,-367 -18,-301 Q-154,-235 -156,-91 Q-156,53 -71,128 Q14,203 150,223 Q106,272 106,365 Q106,458 188,537 Q96,617 96,752 Q96,983 230,1084 Q364,1185 653,1186 Q680,1186 754,1182 L1292,1286 L1249,1042 L1067,1042 Q1159,956 1159,817 Q1159,612 1027,519 Q895,426 616,426"/> 
            <glyph glyph-name="g" unicode="&#x67;" horiz-adv-x="1206" d=" M813,1186 Q1052,1186 1145,1086 Q1221,1004 1206,830 Q1200,761 1180,664 L1036,0 L717,0 L850,629 Q862,703 867,759 Q872,815 826,849 Q780,883 666,883 Q552,882 501,824 Q449,766 426,653 L287,0 L-35,0 L303,1589 L623,1589 L518,1092 Q627,1186 813,1186"/> 
            <glyph glyph-name="h" unicode="&#x68;" horiz-adv-x="633" d=" M246,1266 L309,1559 L633,1559 L571,1266 M-23,0 L225,1159 L545,1159 L299,0"/> 
            <glyph glyph-name="i" unicode="&#x69;" horiz-adv-x="633" d=" M246,1266 L309,1559 L633,1559 L571,1266 M-150,-102 Q-78,-102 -54,-74 Q-30,-46 -10,47 L225,1159 L545,1159 L303,14 Q256,-213 174,-280 Q92,-347 -102,-346 L-227,-346 L-174,-102"/> 
            <glyph glyph-name="j" unicode="&#x6A;" horiz-adv-x="1235" d=" M-33,0 L305,1589 L623,1589 L438,721 L879,1159 L1235,1159 L760,692 L1024,0 L690,0 L514,451 L344,285 L285,0"/> 
            <glyph glyph-name="k" unicode="&#x6B;" horiz-adv-x="637" d=" M301,-4 Q127,-4 72,88 Q17,180 61,389 L315,1589 L637,1589 L383,389 Q367,320 383,294 Q399,268 469,268 L508,268 L453,4 Q399,-4 301,-4"/> 
            <glyph glyph-name="l" unicode="&#x6C;" horiz-adv-x="1914" d=" M803,1186 Q942,1186 1025,1159 Q1108,1132 1149,1059 Q1268,1186 1532,1186 Q1657,1186 1739,1157 Q1821,1128 1860,1086 Q1899,1044 1910,970 Q1921,896 1914,830 Q1907,763 1886,664 L1743,0 L1423,0 L1556,629 Q1568,686 1573,712 Q1587,805 1549,843 Q1511,881 1391,882 Q1272,882 1226,826 Q1180,770 1153,653 L1016,0 L694,0 L827,629 Q837,680 848,731 Q859,782 846,805 Q832,828 812,848 Q778,884 662,883 Q545,882 498,826 Q451,770 426,653 L287,0 L-35,0 L207,1141 L463,1159 L463,1073 Q598,1186 803,1186"/> 
            <glyph glyph-name="m" unicode="&#x6D;" horiz-adv-x="1206" d=" M666,883 Q552,882 501,824 Q449,766 426,653 L287,0 L-35,0 L207,1141 L463,1159 L463,1073 Q598,1186 825,1186 Q1052,1186 1145,1086 Q1221,1004 1206,830 Q1200,761 1180,664 L1036,0 L717,0 L850,629 Q862,703 867,759 Q872,815 826,849 Q780,883 666,883"/> 
            <glyph glyph-name="n" unicode="&#x6E;" horiz-adv-x="1229" d=" M575,252 Q710,252 779,324 Q848,396 881,547 Q897,623 897,682 Q897,893 664,893 Q527,893 458,820 Q389,747 356,594 Q340,518 340,459 Q339,252 575,252 M824,-23 Q276,-23 144,99 Q12,221 12,438 Q12,530 35,643 Q96,928 256,1057 Q416,1186 690,1186 Q964,1186 1097,1065 Q1229,944 1229,729 Q1229,649 1204,522 Q1145,235 985,106"/> 
            <glyph glyph-name="o" unicode="&#x6F;" horiz-adv-x="1274" d=" M506,254 Q764,254 824,326 Q884,398 920,551 Q938,647 938,698 Q938,893 719,893 Q584,894 515,830 Q446,766 412,602 Q394,522 394,438 Q394,354 506,254 M844,1186 Q1274,1186 1274,764 Q1274,653 1246,525 Q1189,266 1062,123 Q935,-20 682,-18 Q510,-18 427,12 Q344,42 309,98 L217,-338 L-104,-338 L209,1141 L463,1159 L465,1067 Q588,1186 844,1186"/> 
            <glyph glyph-name="p" unicode="&#x70;" horiz-adv-x="1311" d=" M346,516 Q346,360 395,308 Q444,256 571,256 Q698,256 767,319 Q836,382 870,547 Q919,767 830,847 Q774,897 646,897 Q518,897 457,824 Q396,752 346,516 M6,401 Q6,503 37,641 Q94,906 222,1046 Q350,1186 598,1186 Q772,1186 866,1156 Q960,1126 1008,1059 L1092,1165 L1311,1147 L997,-338 L674,-338 L756,61 Q652,-19 438,-18 Q6,-18 6,401"/> 
            <glyph glyph-name="q" unicode="&#x71;" horiz-adv-x="829" d=" M-33,0 L209,1141 L465,1159 L465,1049 Q555,1170 829,1174 L764,866 Q586,864 516,802 Q446,740 414,592 L289,0"/> 
            <glyph glyph-name="r" unicode="&#x72;" horiz-adv-x="1108" d=" M475,-18 Q303,-18 155,32 Q7,82 -92,166 L102,385 Q182,324 295,283 Q408,242 504,242 Q600,242 638,259 Q676,276 676,341 Q676,406 481,453 Q467,457 393,474 Q319,491 218,547 Q94,617 94,772 Q94,1186 612,1186 Q907,1186 1108,1049 L909,809 Q749,905 582,905 Q496,905 461,887 Q426,870 426,820 Q426,770 472,748 Q518,726 610,702 Q702,680 742,668 Q782,656 838,629 Q1001,551 999,377 Q999,162 864,72 Q729,-18 475,-18"/> 
            <glyph glyph-name="s" unicode="&#x73;" horiz-adv-x="911" d=" M608,268 L723,268 L666,0 Q619,-4 485,-4 Q254,-4 187,92 Q120,188 164,395 L268,885 L78,885 L137,1159 L344,1159 L459,1442 L719,1493 L647,1159 L911,1159 L854,885 L588,885 L487,408 Q472,332 492,300 Q512,268 608,268"/> 
            <glyph glyph-name="t" unicode="&#x74;" horiz-adv-x="1268" d=" M822,-23 Q314,-23 195,46 Q76,115 58,250 Q41,385 82,584 L205,1159 L526,1159 L399,559 Q383,472 378,406 Q373,340 420,300 Q466,260 582,260 Q698,260 741,317 Q784,374 815,518 L952,1159 L1268,1159 L1128,504 Q1062,201 822,-23"/> 
            <glyph glyph-name="u" unicode="&#x75;" horiz-adv-x="1292" d=" M285,-12 L92,1159 L426,1159 L528,393 L952,1159 L1292,1159 L604,-12"/> 
            <glyph glyph-name="v" unicode="&#x76;" horiz-adv-x="1903" d=" M225,-12 L113,1159 L446,1159 L498,496 L848,1159 L1178,1159 L1253,496 L1579,1159 L1903,1159 L1294,-12 L999,-12 L915,733 L520,-12"/> 
            <glyph glyph-name="w" unicode="&#x77;" horiz-adv-x="1229" d=" M666,0 L500,369 L190,0 L-158,0 L387,618 L145,1159 L481,1159 L621,846 L881,1159 L1229,1159 L735,594 L1001,0"/> 
            <glyph glyph-name="x" unicode="&#x78;" horiz-adv-x="1235" d=" M82,-348 Q-4,-348 -74,-344 L-23,-102 L63,-102 Q155,-102 184,-87 Q213,-72 242,-16 L270,39 L92,1159 L430,1159 L520,459 L903,1159 L1235,1159 L520,-74 Q424,-240 341,-294 Q258,-348 82,-348"/> 
            <glyph glyph-name="y" unicode="&#x79;" horiz-adv-x="1094" d=" M-121,0 L-74,215 L602,885 L102,885 L160,1159 L1094,1159 L1047,940 L367,258 L926,258 L870,0"/> 
        </font>
</defs>
</svg>
