<?xml version="1.0" standalone="no"?>
<!DOCTYPE svg PUBLIC "-//W3C//DTD SVG 1.1//EN" "http://www.w3.org/Graphics/SVG/1.1/DTD/svg11.dtd" >
<svg xmlns="http://www.w3.org/2000/svg">
    <defs>
        <font id="">
            <font-face font-family=""
                       units-per-em="2048"
                       ascent="1638"
                       descent="-410"
                       bbox="-127 -475 3205 1942"
                    />
            <missing-glyph horiz-adv-x="0" />
            
            <glyph glyph-name="0" unicode="&#x30;" horiz-adv-x="1362" d=" M1046,270 Q1159,396 1159,760 Q1159,904 1144,1004 Q1109,1237 964,1311 Q883,1352 760,1352 Q637,1352 555,1311 Q473,1270 431,1187 Q360,1046 359,792 Q358,538 393,429 Q428,319 472,270 Q569,162 759,162 Q949,162 1046,270 M759,1542 Q1105,1542 1238,1327 Q1362,1131 1362,762 Q1362,393 1233,185 Q1104,-23 757,-23 Q410,-23 275,194 Q208,302 180,438 Q152,574 154,760 Q154,948 181,1084 Q244,1388 463,1488 Q584,1542 759,1542"/> 
            <glyph glyph-name="1" unicode="&#x31;" horiz-adv-x="549" d=" M354,0 L354,1327 L72,1327 L72,1518 L549,1518 L549,0"/> 
            <glyph glyph-name="2" unicode="&#x32;" horiz-adv-x="1118" d=" M74,0 L74,166 L582,653 Q770,832 834,924 Q898,1016 897,1135 Q897,1254 827,1306 Q757,1358 592,1358 Q350,1358 180,1266 L92,1430 Q301,1543 608,1542 Q856,1542 976,1450 Q1096,1358 1096,1155 Q1096,991 1021,869 Q946,747 748,557 L350,176 L1118,176 L1118,0"/> 
            <glyph glyph-name="3" unicode="&#x33;" horiz-adv-x="1145" d=" M1145,434 Q1144,180 1010,78 Q876,-24 582,-25 Q288,-25 35,123 L135,283 Q372,154 580,154 Q788,154 869,218 Q950,282 950,443 Q950,602 871,668 Q792,734 567,733 L342,733 L342,911 L563,911 Q756,910 832,964 Q908,1018 907,1143 Q907,1268 838,1315 Q768,1362 596,1362 Q360,1362 180,1255 L74,1409 Q291,1542 612,1542 Q864,1542 983,1460 Q1102,1378 1102,1184 Q1102,893 915,836 Q1038,807 1092,712 Q1146,617 1145,434"/> 
            <glyph glyph-name="4" unicode="&#x34;" horiz-adv-x="1317" d=" M98,360 L98,522 L774,1518 L991,1518 L319,532 L860,532 L901,1014 L1044,1014 L1044,532 L1317,532 L1317,360 L1044,360 L1044,0 L858,0 L858,360"/> 
            <glyph glyph-name="5" unicode="&#x35;" horiz-adv-x="1233" d=" M651,-23 Q354,-23 104,125 L207,285 Q445,154 637,154 Q829,154 931,224 Q1032,295 1032,486 Q1032,678 937,752 Q842,826 658,826 Q474,826 328,756 L160,807 L199,1518 L1120,1518 L1120,1337 L379,1337 L356,938 Q487,1004 713,1004 Q1097,1004 1194,749 Q1233,646 1233,492 Q1233,338 1191,234 Q1118,52 886,-1 Q788,-23 651,-23"/> 
            <glyph glyph-name="6" unicode="&#x36;" horiz-adv-x="1317" d=" M350,539 Q350,330 452,241 Q554,152 757,152 Q960,152 1040,240 Q1120,328 1120,501 Q1120,674 1038,764 Q956,854 763,854 Q570,854 460,774 Q350,694 350,539 M1317,762 Q1317,246 1188,112 Q1059,-22 750,-23 Q441,-23 293,132 Q146,287 145,627 Q145,876 184,1036 Q267,1379 593,1469 Q762,1517 1026,1518 L1110,1518 L1110,1337 L1020,1337 Q571,1337 437,1148 Q393,1086 376,1026 Q359,966 348,881 Q461,1022 813,1022 Q1089,1022 1317,762"/> 
            <glyph glyph-name="7" unicode="&#x37;" horiz-adv-x="1085" d=" M39,1337 L39,1518 L1085,1518 L1085,1360 L489,0 L281,0 L868,1337"/> 
            <glyph glyph-name="8" unicode="&#x38;" horiz-adv-x="1319" d=" M723,905 Q911,906 992,964 Q1073,1022 1073,1140 Q1073,1258 992,1315 Q911,1372 723,1372 Q535,1372 454,1315 Q373,1258 373,1140 Q373,1022 454,964 Q535,906 723,905 M723,143 Q1118,143 1118,440 Q1118,737 723,737 Q518,738 424,664 Q330,590 330,440 Q330,290 424,216 Q518,142 723,143 M1319,426 Q1319,-29 724,-29 Q129,-29 129,426 Q129,764 379,834 Q180,900 180,1163 Q180,1342 303,1442 Q426,1542 724,1542 Q1022,1542 1144,1443 Q1266,1344 1266,1163 Q1266,893 1069,834 Q1319,760 1319,426"/> 
            <glyph glyph-name="9" unicode="&#x39;" horiz-adv-x="1296" d=" M678,657 Q872,657 982,737 Q1092,817 1092,971 Q1092,1182 990,1271 Q888,1360 685,1360 Q481,1360 401,1272 Q322,1184 322,1011 Q322,838 402,748 Q484,658 678,657 M330,0 L330,176 L420,176 Q875,176 1005,368 Q1049,433 1066,492 Q1083,551 1094,635 Q979,494 629,494 Q353,494 239,626 Q125,758 125,1014 Q125,1270 255,1406 Q385,1542 693,1542 Q1001,1542 1149,1388 Q1296,1233 1296,893 Q1296,645 1257,484 Q1218,324 1119,210 Q1020,96 849,48 Q678,0 416,0"/> 
            <glyph glyph-name="A" unicode="&#x41;" horiz-adv-x="1473" d=" M446,510 L1061,510 L754,1280 M45,0 L653,1528 L864,1528 L1473,0 L1260,0 L1135,319 L377,319 L252,0"/> 
            <glyph glyph-name="B" unicode="&#x42;" horiz-adv-x="1389" d=" M375,877 L848,877 Q1012,877 1076,938 Q1140,999 1141,1111 Q1141,1223 1072,1276 Q1003,1329 848,1329 L375,1329 M375,186 L852,186 Q1022,186 1101,246 Q1180,306 1180,437 Q1180,568 1101,626 Q1022,684 848,684 L375,684 M172,0 L172,1518 L842,1518 Q1106,1518 1228,1426 Q1350,1334 1350,1143 Q1350,856 1159,797 Q1284,766 1336,676 Q1388,586 1389,420 Q1388,192 1252,96 Q1116,0 829,0"/> 
            <glyph glyph-name="C" unicode="&#x43;" horiz-adv-x="1411" d=" M828,-23 Q84,-23 84,760 Q84,1153 282,1348 Q480,1542 836,1542 Q1192,1542 1401,1343 L1251,1194 Q1089,1344 850,1343 Q293,1343 293,758 Q293,464 429,318 Q565,172 852,172 Q1002,172 1093,212 Q1184,252 1264,328 L1411,186 Q1202,-23 828,-23"/> 
            <glyph glyph-name="D" unicode="&#x44;" horiz-adv-x="1477" d=" M379,190 L668,190 Q1010,190 1139,316 Q1268,442 1268,763 Q1268,1084 1148,1202 Q1028,1320 682,1321 L379,1321 M172,0 L172,1518 L680,1518 Q902,1518 1048,1483 Q1351,1410 1435,1127 Q1477,983 1477,760 Q1478,334 1290,167 Q1102,0 657,0"/> 
            <glyph glyph-name="E" unicode="&#x45;" horiz-adv-x="1219" d=" M172,0 L172,1518 L1210,1518 L1210,1319 L379,1319 L379,883 L1190,883 L1190,686 L379,686 L379,190 L1219,190 L1219,0"/> 
            <glyph glyph-name="F" unicode="&#x46;" horiz-adv-x="1182" d=" M172,0 L172,1518 L1182,1518 L1182,1319 L379,1319 L379,862 L1163,862 L1163,666 L379,666 L379,0"/> 
            <glyph glyph-name="G" unicode="&#x47;" horiz-adv-x="1520" d=" M840,-23 Q432,-23 258,170 Q84,363 84,760 Q84,1542 850,1542 Q1223,1542 1419,1346 L1272,1194 Q1104,1344 834,1344 Q290,1343 291,758 Q291,450 419,306 Q546,162 832,162 Q1118,162 1217,268 Q1315,374 1315,614 L1315,657 L825,657 L825,842 L1520,842 L1520,651 Q1520,484 1491,368 Q1425,104 1181,23 Q1045,-23 840,-23"/> 
            <glyph glyph-name="H" unicode="&#x48;" horiz-adv-x="1440" d=" M172,0 L172,1518 L379,1518 L379,891 L1233,891 L1233,1518 L1440,1518 L1440,0 L1233,0 L1233,686 L379,686 L379,0"/> 
            <glyph glyph-name="I" unicode="&#x49;" horiz-adv-x="393" d=" M188,0 L188,1518 L393,1518 L393,0"/> 
            <glyph glyph-name="J" unicode="&#x4A;" horiz-adv-x="686" d=" M229,-2 Q116,-2 57,0 L57,190 L207,190 Q357,190 419,250 Q481,310 481,451 L481,1518 L686,1518 L686,442 Q686,202 572,100 Q458,-2 229,-2"/> 
            <glyph glyph-name="K" unicode="&#x4B;" horiz-adv-x="1401" d=" M375,0 L172,0 L172,1518 L375,1518 L375,721 L1090,1518 L1327,1518 L791,920 L1401,0 L1165,0 L655,768 L375,455"/> 
            <glyph glyph-name="L" unicode="&#x4C;" horiz-adv-x="1169" d=" M172,0 L172,1518 L379,1518 L379,190 L1169,190 L1169,0"/> 
            <glyph glyph-name="M" unicode="&#x4D;" horiz-adv-x="1735" d=" M172,0 L172,1518 L442,1518 L954,291 L1468,1518 L1735,1518 L1735,0 L1532,0 L1532,1171 L1036,0 L864,0 L371,1169 L371,0"/> 
            <glyph glyph-name="N" unicode="&#x4E;" horiz-adv-x="1448" d=" M172,0 L172,1518 L397,1518 L1247,348 L1247,1518 L1448,1518 L1448,0 L1257,0 L373,1214 L373,0"/> 
            <glyph glyph-name="O" unicode="&#x4F;" horiz-adv-x="1632" d=" M293,1344 Q293,168 859,168 Q1425,168 1425,756 Q1425,1344 858,1343 M858,-25 Q84,-26 84,758 Q84,1542 858,1542 Q1632,1542 1632,758 Q1632,-26 858,-25"/> 
            <glyph glyph-name="P" unicode="&#x50;" horiz-adv-x="1391" d=" M375,741 L854,741 Q1022,741 1103,810 Q1184,880 1184,1040 Q1184,1200 1105,1262 Q1026,1324 850,1325 L375,1325 M172,0 L172,1518 L854,1518 Q1137,1518 1264,1402 Q1391,1286 1391,1046 Q1391,806 1262,677 Q1133,549 848,549 L375,549 L375,0"/> 
            <glyph glyph-name="Q" unicode="&#x51;" horiz-adv-x="1632" d=" M559,168 Q1157,168 1291,315 Q1425,462 1425,756 Q1425,1050 1291,1196 Q1157,1343 858,1343 Q559,1343 426,1196 Q293,1049 293,756 Q293,464 559,168 M84,780 Q84,1542 858,1542 Q1243,1542 1438,1353 Q1632,1164 1632,766 Q1632,368 1449,182 Q1266,-2 903,-12 Q897,-127 936,-165 Q975,-203 1108,-203 L1276,-203 L1276,-381 L1108,-383 Q862,-383 777,-300 Q692,-217 705,-4 Q396,29 240,213 Q84,397 84,780"/> 
            <glyph glyph-name="R" unicode="&#x52;" horiz-adv-x="1380" d=" M375,774 L846,774 Q1012,774 1092,834 Q1172,894 1171,1051 Q1171,1207 1092,1266 Q1012,1325 840,1325 L375,1325 M375,584 L375,0 L172,0 L172,1518 L848,1518 Q1128,1518 1254,1403 Q1380,1288 1380,1059 Q1380,664 1014,598 L1358,0 L1137,0 L799,584"/> 
            <glyph glyph-name="S" unicode="&#x53;" horiz-adv-x="1352" d=" M727,-20 Q342,-20 74,160 L178,319 Q420,161 721,162 Q950,162 1049,224 Q1147,286 1147,426 Q1147,525 1079,583 Q1011,641 719,688 Q598,708 524,724 Q329,767 251,848 Q152,949 154,1120 Q154,1346 293,1444 Q432,1542 748,1542 Q1064,1542 1276,1403 L1163,1233 Q985,1352 723,1352 Q528,1352 443,1298 Q358,1244 358,1137 Q358,1029 426,976 Q473,937 575,914 Q676,892 767,876 Q1047,828 1151,778 Q1255,729 1303,648 Q1351,567 1352,436 Q1352,204 1202,92 Q1052,-20 727,-20"/> 
            <glyph glyph-name="T" unicode="&#x54;" horiz-adv-x="1372" d=" M606,0 L606,1319 L49,1319 L49,1518 L1372,1518 L1372,1319 L815,1319 L815,0"/> 
            <glyph glyph-name="U" unicode="&#x55;" horiz-adv-x="1454" d=" M805,-27 Q641,-27 521,7 Q402,41 334,92 Q266,143 226,224 Q186,305 174,381 Q162,457 162,557 L162,1518 L369,1518 L369,582 Q369,376 461,272 Q553,168 808,168 Q1063,168 1158,271 Q1253,374 1253,582 L1253,1518 L1454,1518 L1454,557 Q1454,457 1442,380 Q1430,303 1389,223 Q1348,143 1278,91 Q1208,39 1088,6 Q968,-27 805,-27"/> 
            <glyph glyph-name="V" unicode="&#x56;" horiz-adv-x="1468" d=" M651,-10 L47,1518 L264,1518 L760,250 L1251,1518 L1468,1518 L862,-10"/> 
            <glyph glyph-name="W" unicode="&#x57;" horiz-adv-x="2154" d=" M547,-10 L63,1518 L279,1518 L647,336 L1024,1518 L1206,1518 L1583,336 L1952,1518 L2154,1518 L1673,-10 L1491,-10 L1110,1180 L731,-10"/> 
            <glyph glyph-name="X" unicode="&#x58;" horiz-adv-x="1419" d=" M1186,0 L737,639 L303,0 L74,0 L629,795 L125,1518 L354,1518 L752,950 L1139,1518 L1368,1518 L860,795 L1419,0"/> 
            <glyph glyph-name="Y" unicode="&#x59;" horiz-adv-x="1444" d=" M631,0 L631,573 L20,1518 L246,1518 L735,762 L1229,1518 L1444,1518 L836,578 L836,0"/> 
            <glyph glyph-name="Z" unicode="&#x5A;" horiz-adv-x="1286" d=" M86,0 L86,164 L1004,1319 L121,1319 L121,1518 L1264,1518 L1264,1337 L350,190 L1286,190 L1286,0"/> 
            <glyph glyph-name="a" unicode="&#x61;" horiz-adv-x="1198" d=" M520,152 Q717,152 805,234 Q893,316 893,502 L893,571 L842,571 Q604,572 483,550 Q362,528 316,480 Q270,432 270,337 Q270,242 326,197 Q382,152 520,152 M487,-20 Q258,-20 169,71 Q80,162 80,324 Q80,566 241,654 Q402,742 831,741 L893,741 Q889,874 835,926 Q782,978 604,979 Q426,979 272,883 L168,1038 Q238,1085 364,1125 Q490,1165 631,1165 Q772,1164 862,1140 Q1028,1095 1068,918 Q1085,838 1085,709 L1085,303 Q1084,220 1102,198 Q1120,176 1198,176 L1198,2 Q1184,-2 1104,-2 Q1024,-2 984,27 Q944,56 922,127 Q817,-20 487,-20"/> 
            <glyph glyph-name="b" unicode="&#x62;" horiz-adv-x="1252" d=" M514,158 Q902,158 976,260 Q1049,362 1049,565 Q1049,768 978,871 Q906,974 712,974 Q518,974 433,882 Q348,790 348,564 Q348,338 514,158 M147,1589 L346,1589 L346,1026 Q438,1165 764,1165 Q1034,1164 1143,1010 Q1252,856 1252,577 Q1252,298 1145,139 Q1038,-20 734,-20 Q574,-20 476,12 Q378,44 324,121 L287,-8 L147,6"/> 
            <glyph glyph-name="c" unicode="&#x63;" horiz-adv-x="1079" d=" M647,-20 Q338,-20 215,132 Q92,284 92,572 Q92,860 216,1013 Q340,1166 655,1165 Q927,1165 1079,995 L934,858 Q822,973 638,973 Q454,974 374,872 Q294,770 293,566 Q293,362 373,260 Q453,158 655,158 Q815,158 944,274 L1077,147 Q982,60 886,20 Q790,-20 647,-20"/> 
            <glyph glyph-name="d" unicode="&#x64;" horiz-adv-x="1196" d=" M438,162 Q826,162 910,256 Q994,350 995,574 Q995,798 913,888 Q831,978 635,977 Q439,977 367,877 Q295,778 295,574 Q295,370 367,266 M582,-20 Q314,-20 203,134 Q92,288 92,574 Q92,858 204,1011 Q316,1164 588,1163 Q914,1163 995,1026 L995,1589 L1196,1589 L1196,8 L1042,-6 L1020,127 Q966,52 864,16 Q762,-20 582,-20"/> 
            <glyph glyph-name="e" unicode="&#x65;" horiz-adv-x="1126" d=" M457,989 Q301,827 287,670 L938,670 Q926,874 857,932 Q788,989 623,989 M92,571 Q92,832 198,989 Q317,1165 647,1165 Q933,1165 1034,1009 Q1098,911 1114,783 Q1130,655 1126,494 L285,494 Q295,324 374,237 Q453,150 651,150 Q778,150 858,178 Q938,206 1014,262 L1120,123 Q934,-23 661,-23 Q388,-23 253,90 Q92,227 92,571"/> 
            <glyph glyph-name="f" unicode="&#x66;" horiz-adv-x="768" d=" M59,958 L59,1139 L274,1139 L274,1219 Q274,1401 354,1495 Q434,1589 637,1589 L768,1589 L768,1415 L662,1415 Q556,1415 514,1364 Q472,1313 473,1219 L473,1139 L768,1139 L768,958 L473,958 L473,0 L274,0 L274,958"/> 
            <glyph glyph-name="g" unicode="&#x67;" horiz-adv-x="1174" d=" M448,580 Q760,580 826,628 Q892,676 893,782 Q893,888 822,936 Q750,984 598,985 Q446,985 380,938 Q314,892 313,784 Q312,676 448,580 M414,-209 Q818,-209 895,-166 Q973,-123 973,-33 Q973,57 895,86 Q817,115 637,115 Q329,115 276,35 Q256,2 256,-51 Q256,-141 414,-209 M604,416 Q493,416 416,430 Q389,397 389,354 Q389,311 433,297 Q477,283 616,283 Q934,283 1054,218 Q1174,154 1174,-24 Q1174,-202 1042,-284 Q910,-366 604,-367 Q299,-366 177,-308 Q55,-250 55,-84 Q55,149 272,195 Q209,238 209,329 Q209,420 260,489 Q121,577 121,776 Q121,975 237,1070 Q353,1165 604,1165 Q653,1165 678,1163 L1126,1227 L1126,1063 L942,1063 Q1090,982 1090,788 Q1090,594 973,505 Q856,416 604,416"/> 
            <glyph glyph-name="h" unicode="&#x68;" horiz-adv-x="1151" d=" M147,0 L147,1589 L346,1589 L346,1040 Q432,1165 741,1165 Q1003,1165 1081,1033 Q1122,964 1136,888 Q1150,812 1151,694 L1151,0 L952,0 L952,655 Q952,860 886,914 Q820,967 678,969 Q484,969 416,884 Q348,799 348,631 L348,0"/> 
            <glyph glyph-name="i" unicode="&#x69;" horiz-adv-x="358" d=" M158,1276 L158,1518 L358,1518 L358,1276 M160,0 L160,1139 L356,1139 L356,0"/> 
            <glyph glyph-name="j" unicode="&#x6A;" horiz-adv-x="358" d=" M158,1276 L158,1518 L358,1518 L358,1276 M4,-344 L4,-180 L20,-180 Q108,-178 134,-145 Q160,-112 160,-12 L160,1139 L356,1139 L356,-10 Q356,-204 293,-274 Q230,-344 41,-344"/> 
            <glyph glyph-name="k" unicode="&#x6B;" horiz-adv-x="1110" d=" M147,0 L147,1589 L344,1589 L344,553 L848,1139 L1069,1139 L666,666 L1110,0 L889,0 L532,520 L344,305 L344,0"/> 
            <glyph glyph-name="l" unicode="&#x6C;" horiz-adv-x="528" d=" M416,-2 Q275,-2 217,65 Q160,132 160,295 L160,1589 L356,1589 L356,317 Q356,232 380,204 Q404,176 483,176 L528,176 L528,2 Q492,-2 416,-2"/> 
            <glyph glyph-name="m" unicode="&#x6D;" horiz-adv-x="1913" d=" M147,0 L147,1128 L305,1139 L322,1030 Q404,1165 729,1165 Q899,1165 975,1128 Q1051,1091 1077,1022 Q1171,1165 1513,1165 Q1810,1165 1876,980 Q1913,875 1913,694 L1913,0 L1712,0 L1712,655 Q1712,865 1651,916 Q1590,967 1469,968 Q1248,970 1184,872 Q1151,823 1140,768 Q1129,713 1128,631 L1128,0 L932,0 L932,655 Q932,739 926,784 Q920,828 896,878 Q872,928 816,948 Q760,968 663,968 Q566,968 500,945 Q434,921 402,872 Q370,823 359,768 Q348,713 348,631 L348,0"/> 
            <glyph glyph-name="n" unicode="&#x6E;" horiz-adv-x="1151" d=" M147,0 L147,1128 L305,1139 L322,1030 Q422,1165 741,1165 Q1003,1165 1081,1033 Q1122,964 1136,888 Q1150,812 1151,694 L1151,0 L952,0 L952,655 Q952,860 886,914 Q820,967 678,969 Q484,969 416,884 Q348,799 348,631 L348,0"/> 
            <glyph glyph-name="o" unicode="&#x6F;" horiz-adv-x="1216" d=" M458,158 Q848,158 931,260 Q1014,362 1014,567 Q1014,772 931,873 Q848,974 653,974 Q458,974 376,874 Q294,772 293,567 Q294,362 458,158 M654,-23 Q358,-24 225,124 Q92,272 92,571 Q92,870 225,1018 Q358,1166 654,1165 Q950,1165 1083,1018 Q1216,872 1216,572 Q1216,272 1084,124 Q950,-24 654,-23"/> 
            <glyph glyph-name="p" unicode="&#x70;" horiz-adv-x="1252" d=" M514,162 Q906,162 977,263 Q1049,364 1049,566 Q1049,768 978,871 Q906,974 712,974 Q518,974 433,883 Q348,792 348,566 Q348,340 514,162 M147,-338 L147,1128 L305,1139 L322,1018 Q416,1165 764,1165 Q1034,1166 1143,1012 Q1252,858 1252,573 Q1252,288 1140,134 Q1028,-20 756,-18 Q582,-18 488,14 Q394,46 348,119 L348,-338"/> 
            <glyph glyph-name="q" unicode="&#x71;" horiz-adv-x="1196" d=" M438,162 Q826,162 910,256 Q994,350 995,574 Q995,798 913,888 Q831,978 635,977 Q439,977 367,877 Q295,778 295,574 Q295,370 367,266 M995,-338 L995,115 Q938,41 845,10 Q752,-21 582,-20 Q314,-20 203,134 Q92,288 92,574 Q92,858 204,1012 Q316,1166 588,1165 Q768,1164 867,1132 Q966,1100 1020,1028 L1057,1153 L1196,1141 L1196,-338"/> 
            <glyph glyph-name="r" unicode="&#x72;" horiz-adv-x="711" d=" M147,0 L147,1128 L305,1139 L326,999 Q361,1062 463,1106 Q565,1150 711,1153 L711,952 Q516,950 432,859 Q348,768 348,600 L348,0"/> 
            <glyph glyph-name="s" unicode="&#x73;" horiz-adv-x="1022" d=" M1022,330 Q1022,136 910,58 Q798,-20 524,-20 Q250,-20 51,113 L154,268 Q332,153 555,154 Q707,154 768,188 Q829,222 829,310 Q829,400 774,430 Q719,460 590,481 Q460,502 404,516 Q249,553 186,617 Q107,698 108,850 Q109,1002 214,1084 Q319,1166 568,1165 Q817,1165 989,1065 L895,901 Q750,981 584,981 Q418,981 362,946 Q306,912 307,838 Q307,764 360,732 Q413,700 540,678 Q666,656 720,644 Q887,605 943,547 Q1022,466 1022,330"/> 
            <glyph glyph-name="t" unicode="&#x74;" horiz-adv-x="760" d=" M59,958 L59,1139 L266,1139 L301,1462 L459,1493 L459,1139 L760,1139 L760,958 L459,958 L459,338 Q458,252 488,214 Q518,176 623,176 L760,176 L760,0 Q735,-2 565,-2 Q396,-2 328,71 Q260,144 260,311 L260,958"/> 
            <glyph glyph-name="u" unicode="&#x75;" horiz-adv-x="1139" d=" M805,-20 Q481,-20 380,10 Q200,64 159,267 Q142,352 141,487 L141,1139 L340,1139 L340,483 Q340,301 385,245 Q430,188 500,175 Q569,162 643,162 Q717,162 785,175 Q853,188 907,254 Q939,295 943,399 Q944,428 944,489 L944,1139 L1139,1139 L1139,494 Q1138,356 1122,270 Q1082,65 905,10"/> 
            <glyph glyph-name="v" unicode="&#x76;" horiz-adv-x="1135" d=" M467,-10 L14,1139 L227,1139 L578,227 L928,1139 L1135,1139 L682,-10"/> 
            <glyph glyph-name="w" unicode="&#x77;" horiz-adv-x="1792" d=" M426,-10 L27,1139 L236,1139 L530,279 L813,1139 L1010,1139 L1292,281 L1589,1139 L1792,1139 L1391,-10 L1192,-10 L909,838 L627,-10"/> 
            <glyph glyph-name="x" unicode="&#x78;" horiz-adv-x="1106" d=" M883,0 L561,451 L250,0 L33,0 L457,594 L70,1139 L291,1139 L575,739 L856,1139 L1071,1139 L680,592 L1106,0"/> 
            <glyph glyph-name="y" unicode="&#x79;" horiz-adv-x="1102" d=" M262,-344 Q182,-344 158,-342 L158,-180 L246,-180 Q330,-180 366,-158 Q402,-136 422,-76 L457,12 L14,1139 L227,1139 L561,250 L893,1139 L1102,1139 L618,-96 Q568,-232 490,-288 Q412,-344 262,-344"/> 
            <glyph glyph-name="z" unicode="&#x7A;" horiz-adv-x="993" d=" M61,0 L61,145 L711,958 L94,958 L94,1139 L971,1139 L971,989 L319,170 L993,170 L993,0"/> 
            <glyph glyph-name=" " unicode="&#x20;" horiz-adv-x="1362" d=" M1046,270 Q1159,396 1159,760 Q1159,904 1144,1004 Q1109,1237 964,1311 Q883,1352 760,1352 Q637,1352 555,1311 Q473,1270 431,1187 Q360,1046 359,792 Q358,538 393,429 Q428,319 472,270 Q569,162 759,162 Q949,162 1046,270 M759,1542 Q1105,1542 1238,1327 Q1362,1131 1362,762 Q1362,393 1233,185 Q1104,-23 757,-23 Q410,-23 275,194 Q208,302 180,438 Q152,574 154,760 Q154,948 181,1084 Q244,1388 463,1488 Q584,1542 759,1542"/> 
            <glyph glyph-name="0" unicode="&#x30;" horiz-adv-x="549" d=" M354,0 L354,1327 L72,1327 L72,1518 L549,1518 L549,0"/> 
            <glyph glyph-name="1" unicode="&#x31;" horiz-adv-x="1118" d=" M74,0 L74,166 L582,653 Q770,832 834,924 Q898,1016 897,1135 Q897,1254 827,1306 Q757,1358 592,1358 Q350,1358 180,1266 L92,1430 Q301,1543 608,1542 Q856,1542 976,1450 Q1096,1358 1096,1155 Q1096,991 1021,869 Q946,747 748,557 L350,176 L1118,176 L1118,0"/> 
            <glyph glyph-name="2" unicode="&#x32;" horiz-adv-x="1145" d=" M1145,434 Q1144,180 1010,78 Q876,-24 582,-25 Q288,-25 35,123 L135,283 Q372,154 580,154 Q788,154 869,218 Q950,282 950,443 Q950,602 871,668 Q792,734 567,733 L342,733 L342,911 L563,911 Q756,910 832,964 Q908,1018 907,1143 Q907,1268 838,1315 Q768,1362 596,1362 Q360,1362 180,1255 L74,1409 Q291,1542 612,1542 Q864,1542 983,1460 Q1102,1378 1102,1184 Q1102,893 915,836 Q1038,807 1092,712 Q1146,617 1145,434"/> 
            <glyph glyph-name="3" unicode="&#x33;" horiz-adv-x="1317" d=" M98,360 L98,522 L774,1518 L991,1518 L319,532 L860,532 L901,1014 L1044,1014 L1044,532 L1317,532 L1317,360 L1044,360 L1044,0 L858,0 L858,360"/> 
            <glyph glyph-name="4" unicode="&#x34;" horiz-adv-x="1233" d=" M651,-23 Q354,-23 104,125 L207,285 Q445,154 637,154 Q829,154 931,224 Q1032,295 1032,486 Q1032,678 937,752 Q842,826 658,826 Q474,826 328,756 L160,807 L199,1518 L1120,1518 L1120,1337 L379,1337 L356,938 Q487,1004 713,1004 Q1097,1004 1194,749 Q1233,646 1233,492 Q1233,338 1191,234 Q1118,52 886,-1 Q788,-23 651,-23"/> 
            <glyph glyph-name="5" unicode="&#x35;" horiz-adv-x="1317" d=" M350,539 Q350,330 452,241 Q554,152 757,152 Q960,152 1040,240 Q1120,328 1120,501 Q1120,674 1038,764 Q956,854 763,854 Q570,854 460,774 Q350,694 350,539 M1317,762 Q1317,246 1188,112 Q1059,-22 750,-23 Q441,-23 293,132 Q146,287 145,627 Q145,876 184,1036 Q267,1379 593,1469 Q762,1517 1026,1518 L1110,1518 L1110,1337 L1020,1337 Q571,1337 437,1148 Q393,1086 376,1026 Q359,966 348,881 Q461,1022 813,1022 Q1089,1022 1317,762"/> 
            <glyph glyph-name="6" unicode="&#x36;" horiz-adv-x="1085" d=" M39,1337 L39,1518 L1085,1518 L1085,1360 L489,0 L281,0 L868,1337"/> 
            <glyph glyph-name="7" unicode="&#x37;" horiz-adv-x="1319" d=" M723,905 Q911,906 992,964 Q1073,1022 1073,1140 Q1073,1258 992,1315 Q911,1372 723,1372 Q535,1372 454,1315 Q373,1258 373,1140 Q373,1022 454,964 Q535,906 723,905 M723,143 Q1118,143 1118,440 Q1118,737 723,737 Q518,738 424,664 Q330,590 330,440 Q330,290 424,216 Q518,142 723,143 M1319,426 Q1319,-29 724,-29 Q129,-29 129,426 Q129,764 379,834 Q180,900 180,1163 Q180,1342 303,1442 Q426,1542 724,1542 Q1022,1542 1144,1443 Q1266,1344 1266,1163 Q1266,893 1069,834 Q1319,760 1319,426"/> 
            <glyph glyph-name="8" unicode="&#x38;" horiz-adv-x="1296" d=" M678,657 Q872,657 982,737 Q1092,817 1092,971 Q1092,1182 990,1271 Q888,1360 685,1360 Q481,1360 401,1272 Q322,1184 322,1011 Q322,838 402,748 Q484,658 678,657 M330,0 L330,176 L420,176 Q875,176 1005,368 Q1049,433 1066,492 Q1083,551 1094,635 Q979,494 629,494 Q353,494 239,626 Q125,758 125,1014 Q125,1270 255,1406 Q385,1542 693,1542 Q1001,1542 1149,1388 Q1296,1233 1296,893 Q1296,645 1257,484 Q1218,324 1119,210 Q1020,96 849,48 Q678,0 416,0"/> 
            <glyph glyph-name="9" unicode="&#x39;" horiz-adv-x="1473" d=" M446,510 L1061,510 L754,1280 M45,0 L653,1528 L864,1528 L1473,0 L1260,0 L1135,319 L377,319 L252,0"/> 
            <glyph glyph-name="A" unicode="&#x41;" horiz-adv-x="1389" d=" M375,877 L848,877 Q1012,877 1076,938 Q1140,999 1141,1111 Q1141,1223 1072,1276 Q1003,1329 848,1329 L375,1329 M375,186 L852,186 Q1022,186 1101,246 Q1180,306 1180,437 Q1180,568 1101,626 Q1022,684 848,684 L375,684 M172,0 L172,1518 L842,1518 Q1106,1518 1228,1426 Q1350,1334 1350,1143 Q1350,856 1159,797 Q1284,766 1336,676 Q1388,586 1389,420 Q1388,192 1252,96 Q1116,0 829,0"/> 
            <glyph glyph-name="B" unicode="&#x42;" horiz-adv-x="1411" d=" M828,-23 Q84,-23 84,760 Q84,1153 282,1348 Q480,1542 836,1542 Q1192,1542 1401,1343 L1251,1194 Q1089,1344 850,1343 Q293,1343 293,758 Q293,464 429,318 Q565,172 852,172 Q1002,172 1093,212 Q1184,252 1264,328 L1411,186 Q1202,-23 828,-23"/> 
            <glyph glyph-name="C" unicode="&#x43;" horiz-adv-x="1477" d=" M379,190 L668,190 Q1010,190 1139,316 Q1268,442 1268,763 Q1268,1084 1148,1202 Q1028,1320 682,1321 L379,1321 M172,0 L172,1518 L680,1518 Q902,1518 1048,1483 Q1351,1410 1435,1127 Q1477,983 1477,760 Q1478,334 1290,167 Q1102,0 657,0"/> 
            <glyph glyph-name="D" unicode="&#x44;" horiz-adv-x="1219" d=" M172,0 L172,1518 L1210,1518 L1210,1319 L379,1319 L379,883 L1190,883 L1190,686 L379,686 L379,190 L1219,190 L1219,0"/> 
            <glyph glyph-name="E" unicode="&#x45;" horiz-adv-x="1182" d=" M172,0 L172,1518 L1182,1518 L1182,1319 L379,1319 L379,862 L1163,862 L1163,666 L379,666 L379,0"/> 
            <glyph glyph-name="F" unicode="&#x46;" horiz-adv-x="1520" d=" M840,-23 Q432,-23 258,170 Q84,363 84,760 Q84,1542 850,1542 Q1223,1542 1419,1346 L1272,1194 Q1104,1344 834,1344 Q290,1343 291,758 Q291,450 419,306 Q546,162 832,162 Q1118,162 1217,268 Q1315,374 1315,614 L1315,657 L825,657 L825,842 L1520,842 L1520,651 Q1520,484 1491,368 Q1425,104 1181,23 Q1045,-23 840,-23"/> 
            <glyph glyph-name="G" unicode="&#x47;" horiz-adv-x="1440" d=" M172,0 L172,1518 L379,1518 L379,891 L1233,891 L1233,1518 L1440,1518 L1440,0 L1233,0 L1233,686 L379,686 L379,0"/> 
            <glyph glyph-name="H" unicode="&#x48;" horiz-adv-x="393" d=" M188,0 L188,1518 L393,1518 L393,0"/> 
            <glyph glyph-name="I" unicode="&#x49;" horiz-adv-x="686" d=" M229,-2 Q116,-2 57,0 L57,190 L207,190 Q357,190 419,250 Q481,310 481,451 L481,1518 L686,1518 L686,442 Q686,202 572,100 Q458,-2 229,-2"/> 
            <glyph glyph-name="J" unicode="&#x4A;" horiz-adv-x="1401" d=" M375,0 L172,0 L172,1518 L375,1518 L375,721 L1090,1518 L1327,1518 L791,920 L1401,0 L1165,0 L655,768 L375,455"/> 
            <glyph glyph-name="K" unicode="&#x4B;" horiz-adv-x="1169" d=" M172,0 L172,1518 L379,1518 L379,190 L1169,190 L1169,0"/> 
            <glyph glyph-name="L" unicode="&#x4C;" horiz-adv-x="1735" d=" M172,0 L172,1518 L442,1518 L954,291 L1468,1518 L1735,1518 L1735,0 L1532,0 L1532,1171 L1036,0 L864,0 L371,1169 L371,0"/> 
            <glyph glyph-name="M" unicode="&#x4D;" horiz-adv-x="1448" d=" M172,0 L172,1518 L397,1518 L1247,348 L1247,1518 L1448,1518 L1448,0 L1257,0 L373,1214 L373,0"/> 
            <glyph glyph-name="N" unicode="&#x4E;" horiz-adv-x="1632" d=" M293,1344 Q293,168 859,168 Q1425,168 1425,756 Q1425,1344 858,1343 M858,-25 Q84,-26 84,758 Q84,1542 858,1542 Q1632,1542 1632,758 Q1632,-26 858,-25"/> 
            <glyph glyph-name="O" unicode="&#x4F;" horiz-adv-x="1391" d=" M375,741 L854,741 Q1022,741 1103,810 Q1184,880 1184,1040 Q1184,1200 1105,1262 Q1026,1324 850,1325 L375,1325 M172,0 L172,1518 L854,1518 Q1137,1518 1264,1402 Q1391,1286 1391,1046 Q1391,806 1262,677 Q1133,549 848,549 L375,549 L375,0"/> 
            <glyph glyph-name="P" unicode="&#x50;" horiz-adv-x="1632" d=" M559,168 Q1157,168 1291,315 Q1425,462 1425,756 Q1425,1050 1291,1196 Q1157,1343 858,1343 Q559,1343 426,1196 Q293,1049 293,756 Q293,464 559,168 M84,780 Q84,1542 858,1542 Q1243,1542 1438,1353 Q1632,1164 1632,766 Q1632,368 1449,182 Q1266,-2 903,-12 Q897,-127 936,-165 Q975,-203 1108,-203 L1276,-203 L1276,-381 L1108,-383 Q862,-383 777,-300 Q692,-217 705,-4 Q396,29 240,213 Q84,397 84,780"/> 
            <glyph glyph-name="Q" unicode="&#x51;" horiz-adv-x="1380" d=" M375,774 L846,774 Q1012,774 1092,834 Q1172,894 1171,1051 Q1171,1207 1092,1266 Q1012,1325 840,1325 L375,1325 M375,584 L375,0 L172,0 L172,1518 L848,1518 Q1128,1518 1254,1403 Q1380,1288 1380,1059 Q1380,664 1014,598 L1358,0 L1137,0 L799,584"/> 
            <glyph glyph-name="R" unicode="&#x52;" horiz-adv-x="1352" d=" M727,-20 Q342,-20 74,160 L178,319 Q420,161 721,162 Q950,162 1049,224 Q1147,286 1147,426 Q1147,525 1079,583 Q1011,641 719,688 Q598,708 524,724 Q329,767 251,848 Q152,949 154,1120 Q154,1346 293,1444 Q432,1542 748,1542 Q1064,1542 1276,1403 L1163,1233 Q985,1352 723,1352 Q528,1352 443,1298 Q358,1244 358,1137 Q358,1029 426,976 Q473,937 575,914 Q676,892 767,876 Q1047,828 1151,778 Q1255,729 1303,648 Q1351,567 1352,436 Q1352,204 1202,92 Q1052,-20 727,-20"/> 
            <glyph glyph-name="S" unicode="&#x53;" horiz-adv-x="1372" d=" M606,0 L606,1319 L49,1319 L49,1518 L1372,1518 L1372,1319 L815,1319 L815,0"/> 
            <glyph glyph-name="T" unicode="&#x54;" horiz-adv-x="1454" d=" M805,-27 Q641,-27 521,7 Q402,41 334,92 Q266,143 226,224 Q186,305 174,381 Q162,457 162,557 L162,1518 L369,1518 L369,582 Q369,376 461,272 Q553,168 808,168 Q1063,168 1158,271 Q1253,374 1253,582 L1253,1518 L1454,1518 L1454,557 Q1454,457 1442,380 Q1430,303 1389,223 Q1348,143 1278,91 Q1208,39 1088,6 Q968,-27 805,-27"/> 
            <glyph glyph-name="U" unicode="&#x55;" horiz-adv-x="1468" d=" M651,-10 L47,1518 L264,1518 L760,250 L1251,1518 L1468,1518 L862,-10"/> 
            <glyph glyph-name="V" unicode="&#x56;" horiz-adv-x="2154" d=" M547,-10 L63,1518 L279,1518 L647,336 L1024,1518 L1206,1518 L1583,336 L1952,1518 L2154,1518 L1673,-10 L1491,-10 L1110,1180 L731,-10"/> 
            <glyph glyph-name="W" unicode="&#x57;" horiz-adv-x="1419" d=" M1186,0 L737,639 L303,0 L74,0 L629,795 L125,1518 L354,1518 L752,950 L1139,1518 L1368,1518 L860,795 L1419,0"/> 
            <glyph glyph-name="X" unicode="&#x58;" horiz-adv-x="1444" d=" M631,0 L631,573 L20,1518 L246,1518 L735,762 L1229,1518 L1444,1518 L836,578 L836,0"/> 
            <glyph glyph-name="Y" unicode="&#x59;" horiz-adv-x="1286" d=" M86,0 L86,164 L1004,1319 L121,1319 L121,1518 L1264,1518 L1264,1337 L350,190 L1286,190 L1286,0"/> 
            <glyph glyph-name="Z" unicode="&#x5A;" horiz-adv-x="1198" d=" M520,152 Q717,152 805,234 Q893,316 893,502 L893,571 L842,571 Q604,572 483,550 Q362,528 316,480 Q270,432 270,337 Q270,242 326,197 Q382,152 520,152 M487,-20 Q258,-20 169,71 Q80,162 80,324 Q80,566 241,654 Q402,742 831,741 L893,741 Q889,874 835,926 Q782,978 604,979 Q426,979 272,883 L168,1038 Q238,1085 364,1125 Q490,1165 631,1165 Q772,1164 862,1140 Q1028,1095 1068,918 Q1085,838 1085,709 L1085,303 Q1084,220 1102,198 Q1120,176 1198,176 L1198,2 Q1184,-2 1104,-2 Q1024,-2 984,27 Q944,56 922,127 Q817,-20 487,-20"/> 
            <glyph glyph-name="a" unicode="&#x61;" horiz-adv-x="1252" d=" M514,158 Q902,158 976,260 Q1049,362 1049,565 Q1049,768 978,871 Q906,974 712,974 Q518,974 433,882 Q348,790 348,564 Q348,338 514,158 M147,1589 L346,1589 L346,1026 Q438,1165 764,1165 Q1034,1164 1143,1010 Q1252,856 1252,577 Q1252,298 1145,139 Q1038,-20 734,-20 Q574,-20 476,12 Q378,44 324,121 L287,-8 L147,6"/> 
            <glyph glyph-name="b" unicode="&#x62;" horiz-adv-x="1079" d=" M647,-20 Q338,-20 215,132 Q92,284 92,572 Q92,860 216,1013 Q340,1166 655,1165 Q927,1165 1079,995 L934,858 Q822,973 638,973 Q454,974 374,872 Q294,770 293,566 Q293,362 373,260 Q453,158 655,158 Q815,158 944,274 L1077,147 Q982,60 886,20 Q790,-20 647,-20"/> 
            <glyph glyph-name="c" unicode="&#x63;" horiz-adv-x="1196" d=" M438,162 Q826,162 910,256 Q994,350 995,574 Q995,798 913,888 Q831,978 635,977 Q439,977 367,877 Q295,778 295,574 Q295,370 367,266 M582,-20 Q314,-20 203,134 Q92,288 92,574 Q92,858 204,1011 Q316,1164 588,1163 Q914,1163 995,1026 L995,1589 L1196,1589 L1196,8 L1042,-6 L1020,127 Q966,52 864,16 Q762,-20 582,-20"/> 
            <glyph glyph-name="d" unicode="&#x64;" horiz-adv-x="1126" d=" M457,989 Q301,827 287,670 L938,670 Q926,874 857,932 Q788,989 623,989 M92,571 Q92,832 198,989 Q317,1165 647,1165 Q933,1165 1034,1009 Q1098,911 1114,783 Q1130,655 1126,494 L285,494 Q295,324 374,237 Q453,150 651,150 Q778,150 858,178 Q938,206 1014,262 L1120,123 Q934,-23 661,-23 Q388,-23 253,90 Q92,227 92,571"/> 
            <glyph glyph-name="e" unicode="&#x65;" horiz-adv-x="768" d=" M59,958 L59,1139 L274,1139 L274,1219 Q274,1401 354,1495 Q434,1589 637,1589 L768,1589 L768,1415 L662,1415 Q556,1415 514,1364 Q472,1313 473,1219 L473,1139 L768,1139 L768,958 L473,958 L473,0 L274,0 L274,958"/> 
            <glyph glyph-name="f" unicode="&#x66;" horiz-adv-x="1174" d=" M448,580 Q760,580 826,628 Q892,676 893,782 Q893,888 822,936 Q750,984 598,985 Q446,985 380,938 Q314,892 313,784 Q312,676 448,580 M414,-209 Q818,-209 895,-166 Q973,-123 973,-33 Q973,57 895,86 Q817,115 637,115 Q329,115 276,35 Q256,2 256,-51 Q256,-141 414,-209 M604,416 Q493,416 416,430 Q389,397 389,354 Q389,311 433,297 Q477,283 616,283 Q934,283 1054,218 Q1174,154 1174,-24 Q1174,-202 1042,-284 Q910,-366 604,-367 Q299,-366 177,-308 Q55,-250 55,-84 Q55,149 272,195 Q209,238 209,329 Q209,420 260,489 Q121,577 121,776 Q121,975 237,1070 Q353,1165 604,1165 Q653,1165 678,1163 L1126,1227 L1126,1063 L942,1063 Q1090,982 1090,788 Q1090,594 973,505 Q856,416 604,416"/> 
            <glyph glyph-name="g" unicode="&#x67;" horiz-adv-x="1151" d=" M147,0 L147,1589 L346,1589 L346,1040 Q432,1165 741,1165 Q1003,1165 1081,1033 Q1122,964 1136,888 Q1150,812 1151,694 L1151,0 L952,0 L952,655 Q952,860 886,914 Q820,967 678,969 Q484,969 416,884 Q348,799 348,631 L348,0"/> 
            <glyph glyph-name="h" unicode="&#x68;" horiz-adv-x="358" d=" M158,1276 L158,1518 L358,1518 L358,1276 M160,0 L160,1139 L356,1139 L356,0"/> 
            <glyph glyph-name="i" unicode="&#x69;" horiz-adv-x="358" d=" M158,1276 L158,1518 L358,1518 L358,1276 M4,-344 L4,-180 L20,-180 Q108,-178 134,-145 Q160,-112 160,-12 L160,1139 L356,1139 L356,-10 Q356,-204 293,-274 Q230,-344 41,-344"/> 
            <glyph glyph-name="j" unicode="&#x6A;" horiz-adv-x="1110" d=" M147,0 L147,1589 L344,1589 L344,553 L848,1139 L1069,1139 L666,666 L1110,0 L889,0 L532,520 L344,305 L344,0"/> 
            <glyph glyph-name="k" unicode="&#x6B;" horiz-adv-x="528" d=" M416,-2 Q275,-2 217,65 Q160,132 160,295 L160,1589 L356,1589 L356,317 Q356,232 380,204 Q404,176 483,176 L528,176 L528,2 Q492,-2 416,-2"/> 
            <glyph glyph-name="l" unicode="&#x6C;" horiz-adv-x="1913" d=" M147,0 L147,1128 L305,1139 L322,1030 Q404,1165 729,1165 Q899,1165 975,1128 Q1051,1091 1077,1022 Q1171,1165 1513,1165 Q1810,1165 1876,980 Q1913,875 1913,694 L1913,0 L1712,0 L1712,655 Q1712,865 1651,916 Q1590,967 1469,968 Q1248,970 1184,872 Q1151,823 1140,768 Q1129,713 1128,631 L1128,0 L932,0 L932,655 Q932,739 926,784 Q920,828 896,878 Q872,928 816,948 Q760,968 663,968 Q566,968 500,945 Q434,921 402,872 Q370,823 359,768 Q348,713 348,631 L348,0"/> 
            <glyph glyph-name="m" unicode="&#x6D;" horiz-adv-x="1151" d=" M147,0 L147,1128 L305,1139 L322,1030 Q422,1165 741,1165 Q1003,1165 1081,1033 Q1122,964 1136,888 Q1150,812 1151,694 L1151,0 L952,0 L952,655 Q952,860 886,914 Q820,967 678,969 Q484,969 416,884 Q348,799 348,631 L348,0"/> 
            <glyph glyph-name="n" unicode="&#x6E;" horiz-adv-x="1216" d=" M458,158 Q848,158 931,260 Q1014,362 1014,567 Q1014,772 931,873 Q848,974 653,974 Q458,974 376,874 Q294,772 293,567 Q294,362 458,158 M654,-23 Q358,-24 225,124 Q92,272 92,571 Q92,870 225,1018 Q358,1166 654,1165 Q950,1165 1083,1018 Q1216,872 1216,572 Q1216,272 1084,124 Q950,-24 654,-23"/> 
            <glyph glyph-name="o" unicode="&#x6F;" horiz-adv-x="1252" d=" M514,162 Q906,162 977,263 Q1049,364 1049,566 Q1049,768 978,871 Q906,974 712,974 Q518,974 433,883 Q348,792 348,566 Q348,340 514,162 M147,-338 L147,1128 L305,1139 L322,1018 Q416,1165 764,1165 Q1034,1166 1143,1012 Q1252,858 1252,573 Q1252,288 1140,134 Q1028,-20 756,-18 Q582,-18 488,14 Q394,46 348,119 L348,-338"/> 
            <glyph glyph-name="p" unicode="&#x70;" horiz-adv-x="1196" d=" M438,162 Q826,162 910,256 Q994,350 995,574 Q995,798 913,888 Q831,978 635,977 Q439,977 367,877 Q295,778 295,574 Q295,370 367,266 M995,-338 L995,115 Q938,41 845,10 Q752,-21 582,-20 Q314,-20 203,134 Q92,288 92,574 Q92,858 204,1012 Q316,1166 588,1165 Q768,1164 867,1132 Q966,1100 1020,1028 L1057,1153 L1196,1141 L1196,-338"/> 
            <glyph glyph-name="q" unicode="&#x71;" horiz-adv-x="711" d=" M147,0 L147,1128 L305,1139 L326,999 Q361,1062 463,1106 Q565,1150 711,1153 L711,952 Q516,950 432,859 Q348,768 348,600 L348,0"/> 
            <glyph glyph-name="r" unicode="&#x72;" horiz-adv-x="1022" d=" M1022,330 Q1022,136 910,58 Q798,-20 524,-20 Q250,-20 51,113 L154,268 Q332,153 555,154 Q707,154 768,188 Q829,222 829,310 Q829,400 774,430 Q719,460 590,481 Q460,502 404,516 Q249,553 186,617 Q107,698 108,850 Q109,1002 214,1084 Q319,1166 568,1165 Q817,1165 989,1065 L895,901 Q750,981 584,981 Q418,981 362,946 Q306,912 307,838 Q307,764 360,732 Q413,700 540,678 Q666,656 720,644 Q887,605 943,547 Q1022,466 1022,330"/> 
            <glyph glyph-name="s" unicode="&#x73;" horiz-adv-x="760" d=" M59,958 L59,1139 L266,1139 L301,1462 L459,1493 L459,1139 L760,1139 L760,958 L459,958 L459,338 Q458,252 488,214 Q518,176 623,176 L760,176 L760,0 Q735,-2 565,-2 Q396,-2 328,71 Q260,144 260,311 L260,958"/> 
            <glyph glyph-name="t" unicode="&#x74;" horiz-adv-x="1139" d=" M805,-20 Q481,-20 380,10 Q200,64 159,267 Q142,352 141,487 L141,1139 L340,1139 L340,483 Q340,301 385,245 Q430,188 500,175 Q569,162 643,162 Q717,162 785,175 Q853,188 907,254 Q939,295 943,399 Q944,428 944,489 L944,1139 L1139,1139 L1139,494 Q1138,356 1122,270 Q1082,65 905,10"/> 
            <glyph glyph-name="u" unicode="&#x75;" horiz-adv-x="1135" d=" M467,-10 L14,1139 L227,1139 L578,227 L928,1139 L1135,1139 L682,-10"/> 
            <glyph glyph-name="v" unicode="&#x76;" horiz-adv-x="1792" d=" M426,-10 L27,1139 L236,1139 L530,279 L813,1139 L1010,1139 L1292,281 L1589,1139 L1792,1139 L1391,-10 L1192,-10 L909,838 L627,-10"/> 
            <glyph glyph-name="w" unicode="&#x77;" horiz-adv-x="1106" d=" M883,0 L561,451 L250,0 L33,0 L457,594 L70,1139 L291,1139 L575,739 L856,1139 L1071,1139 L680,592 L1106,0"/> 
            <glyph glyph-name="x" unicode="&#x78;" horiz-adv-x="1102" d=" M262,-344 Q182,-344 158,-342 L158,-180 L246,-180 Q330,-180 366,-158 Q402,-136 422,-76 L457,12 L14,1139 L227,1139 L561,250 L893,1139 L1102,1139 L618,-96 Q568,-232 490,-288 Q412,-344 262,-344"/> 
            <glyph glyph-name="y" unicode="&#x79;" horiz-adv-x="993" d=" M61,0 L61,145 L711,958 L94,958 L94,1139 L971,1139 L971,989 L319,170 L993,170 L993,0"/> 
            <glyph glyph-name=" " unicode="&#xA0;" horiz-adv-x="1362" d=" M1046,270 Q1159,396 1159,760 Q1159,904 1144,1004 Q1109,1237 964,1311 Q883,1352 760,1352 Q637,1352 555,1311 Q473,1270 431,1187 Q360,1046 359,792 Q358,538 393,429 Q428,319 472,270 Q569,162 759,162 Q949,162 1046,270 M759,1542 Q1105,1542 1238,1327 Q1362,1131 1362,762 Q1362,393 1233,185 Q1104,-23 757,-23 Q410,-23 275,194 Q208,302 180,438 Q152,574 154,760 Q154,948 181,1084 Q244,1388 463,1488 Q584,1542 759,1542"/> 
        </font>
</defs>
</svg>
